%FSLAX23Y23*%
%MOMM*%
%SFA1B1*%

%IPPOS*%
%ADD10C,0.762000*%
%ADD11C,0.254000*%
%ADD12C,1.778000*%
%ADD13C,1.320038*%
%ADD14C,1.620012*%
%ADD15R,2.540000X1.270000*%
%ADD16O,2.540000X1.270000*%
%ADD17C,0.659892*%
%ADD18C,1.500124*%
%ADD19R,1.500124X1.500124*%
%LNteensyconnectionboard-1*%
%LPD*%
G36*
X88784Y106089D02*
X88762Y105918D01*
X88805Y105586*
X88933Y105277*
X89137Y105012*
X89402Y104808*
X89711Y104680*
X90043Y104637*
X90374Y104680*
X90683Y104808*
X90948Y105012*
X91152Y105277*
X91280Y105586*
X91323Y105918*
X91305Y106055*
X91426Y106114*
X91980Y105560*
X91989Y105495*
X92103Y105220*
X92284Y104984*
X92520Y104802*
X92795Y104689*
X93091Y104650*
X93138Y104656*
X94833Y102961*
X94992Y102839*
X95178Y102762*
X95368Y102737*
X95359Y102610*
X91262*
X88450Y105422*
X88492Y105525*
X88527Y105791*
X88492Y106056*
X88390Y106303*
X88388Y106306*
X88484Y106389*
X88784Y106089*
G37*
G36*
X89642Y99707D02*
D01*
X93508*
X93551Y99580*
X93427Y99485*
X93398Y99447*
X93218*
X93019Y99421*
X92833Y99344*
X92674Y99222*
X92518Y99066*
X90096*
X89574Y99588*
X89634Y99708*
X89642Y99707*
G37*
G36*
X120129Y103744D02*
Y80645D01*
X120178Y80397*
X120319Y80187*
X121653Y78852*
Y50941*
X118984Y48272*
X73058*
X73015Y48399*
X73118Y48478*
X83982Y59342*
X84104Y59501*
X84181Y59687*
X84207Y59886*
Y81794*
X85122Y82709*
X85158Y82697*
X85247Y82654*
X85345Y82418*
X85508Y82206*
X85720Y82043*
X85967Y81941*
X86233Y81906*
X87503*
X87768Y81941*
X88015Y82043*
X88170Y82162*
X88505*
X89582Y81085*
X89498Y80989*
X89411Y81056*
X89225Y81133*
X89027Y81159*
X88170*
X88015Y81278*
X87768Y81380*
X87503Y81415*
X86233*
X85967Y81380*
X85720Y81278*
X85508Y81115*
X85345Y80903*
X85243Y80656*
X85208Y80391*
X85243Y80125*
X85345Y79878*
X85508Y79666*
X85720Y79503*
X85967Y79401*
X86233Y79366*
X87503*
X87768Y79401*
X88015Y79503*
X88170Y79622*
X88708*
X89753Y78577*
X89912Y78455*
X90098Y78378*
X90297Y78352*
X92645*
X95039Y75958*
X95198Y75836*
X95384Y75759*
X95582Y75733*
X95762*
X95812Y75694*
X96121Y75566*
X96452Y75523*
X96784Y75566*
X97093Y75694*
X97358Y75898*
X97562Y76163*
X97690Y76472*
X97733Y76804*
X97690Y77135*
X97562Y77444*
X97358Y77709*
X97093Y77913*
X96784Y78041*
X96452Y78084*
X96121Y78041*
X95812Y77913*
X95547Y77709*
X95467Y77704*
X93507Y79664*
X93348Y79786*
X93162Y79863*
X92964Y79889*
X90615*
X90173Y80331*
X90256Y80427*
X90344Y80360*
X90529Y80283*
X90728Y80257*
X93153*
X94452Y78958*
X94611Y78836*
X94797Y78759*
X94996Y78733*
X95762*
X95812Y78694*
X96121Y78566*
X96452Y78523*
X96784Y78566*
X97093Y78694*
X97358Y78898*
X97562Y79163*
X97690Y79472*
X97733Y79804*
X97690Y80135*
X97562Y80444*
X97358Y80709*
X97093Y80913*
X96784Y81041*
X96452Y81084*
X96121Y81041*
X95812Y80913*
X95547Y80709*
X95343Y80444*
X95327Y80406*
X95203Y80381*
X94015Y81569*
X93856Y81691*
X93670Y81768*
X93472Y81794*
X91047*
X89367Y83474*
X89208Y83596*
X89022Y83673*
X88823Y83699*
X88170*
X88015Y83818*
X87768Y83920*
X87503Y83955*
X86535*
X86486Y84072*
X86679Y84266*
X86801Y84425*
X86810Y84446*
X87503*
X87768Y84481*
X88015Y84583*
X88227Y84746*
X88390Y84958*
X88492Y85205*
X88527Y85471*
X88492Y85736*
X88390Y85983*
X88227Y86195*
X88015Y86358*
X87768Y86460*
X87503Y86495*
X86413*
X86364Y86613*
X86679Y86927*
X86724Y86986*
X87503*
X87768Y87021*
X88015Y87123*
X88227Y87286*
X88390Y87498*
X88492Y87745*
X88527Y88011*
X88492Y88276*
X88390Y88523*
X88227Y88735*
X88015Y88898*
X87768Y89000*
X87503Y89035*
X86233*
X85967Y89000*
X85720Y88898*
X85508Y88735*
X85345Y88523*
X85243Y88276*
X85208Y88011*
X85242Y87751*
X85237Y87738*
X85153Y87636*
X84293*
X84094Y87610*
X83909Y87533*
X83749Y87411*
X81371Y85033*
X81249Y84873*
X81172Y84688*
X81146Y84489*
Y60296*
X79498Y58649*
X79381Y58698*
Y82485*
X80553Y83657*
X80675Y83816*
X80752Y84002*
X80778Y84201*
Y84898*
X85611Y89731*
X85631*
X85720Y89663*
X85967Y89561*
X86233Y89526*
X87503*
X87768Y89561*
X88015Y89663*
X88227Y89826*
X88390Y90038*
X88444Y90169*
X88569Y90193*
X91422Y87340*
X91581Y87218*
X91767Y87141*
X91966Y87115*
X98649*
X103503Y82260*
X103663Y82138*
X103848Y82061*
X104047Y82035*
X105033*
X105139Y81898*
X105404Y81694*
X105713Y81566*
X106045Y81523*
X106376Y81566*
X106685Y81694*
X106950Y81898*
X107154Y82163*
X107282Y82472*
X107325Y82804*
X107282Y83135*
X107154Y83444*
X106950Y83709*
X106685Y83913*
X106376Y84041*
X106045Y84084*
X105713Y84041*
X105404Y83913*
X105139Y83709*
X105033Y83572*
X104365*
X99511Y88427*
X99351Y88549*
X99166Y88626*
X98967Y88652*
X92284*
X88731Y92205*
X88780Y92322*
X94298*
X94386Y92225*
X94367Y92075*
X94410Y91743*
X94538Y91434*
X94742Y91169*
X95007Y90965*
X95316Y90837*
X95648Y90794*
X95979Y90837*
X96288Y90965*
X96553Y91169*
X96757Y91434*
X96885Y91743*
X96928Y92075*
X96885Y92406*
X96768Y92687*
X96876Y92759*
X97389Y92246*
X97367Y92075*
X97410Y91743*
X97538Y91434*
X97742Y91169*
X98007Y90965*
X98316Y90837*
X98648Y90794*
X98979Y90837*
X99288Y90965*
X99553Y91169*
X99757Y91434*
X99885Y91743*
X99928Y92075*
X99885Y92406*
X99757Y92715*
X99553Y92980*
X99288Y93184*
X98979Y93312*
X98648Y93355*
X98476Y93333*
X95635Y96174*
X95476Y96296*
X95290Y96373*
X95092Y96399*
X88170*
X88015Y96518*
X87768Y96620*
X87503Y96655*
X86233*
X85967Y96620*
X85720Y96518*
X85508Y96355*
X85345Y96143*
X85243Y95896*
X85223Y95747*
X85096Y95755*
Y96150*
X86108Y97162*
X86233Y97146*
X87503*
X87768Y97181*
X88015Y97283*
X88227Y97446*
X88390Y97658*
X88492Y97905*
X88527Y98171*
X88510Y98299*
X88631Y98358*
X89235Y97754*
X89394Y97632*
X89579Y97555*
X89778Y97529*
X92837*
X93035Y97555*
X93221Y97632*
X93380Y97754*
X93467Y97841*
X93663Y97691*
X93938Y97577*
X94234Y97538*
X94529Y97577*
X94804Y97691*
X95040Y97872*
X95221Y98108*
X95335Y98383*
X95374Y98679*
X95372Y98696*
X95486Y98752*
X95644Y98594*
X95672Y98383*
X95786Y98108*
X95967Y97872*
X96203Y97691*
X96478Y97577*
X96774Y97538*
X97069Y97577*
X97344Y97691*
X97580Y97872*
X97762Y98108*
X97875Y98383*
X97914Y98679*
X97912Y98696*
X98026Y98752*
X98182Y98596*
Y97547*
X100445*
Y98693*
X100562Y98741*
X101689Y97614*
X101633Y97541*
X101505Y97232*
X101462Y96901*
X101505Y96569*
X101633Y96260*
X101837Y95995*
X102102Y95791*
X102411Y95663*
X102743Y95620*
X103074Y95663*
X103383Y95791*
X103648Y95995*
X103852Y96260*
X103980Y96569*
X104023Y96901*
X103980Y97232*
X103852Y97541*
X103648Y97806*
X103542Y97888*
X103535Y97905*
X103413Y98064*
X101573Y99904*
X101568Y99943*
X101491Y100128*
X101369Y100288*
X99776Y101881*
X99835Y102001*
X100076Y101970*
X100407Y102013*
X100716Y102141*
X100981Y102345*
X101185Y102610*
X101313Y102919*
X101356Y103251*
X101313Y103582*
X101185Y103891*
X100981Y104156*
X100716Y104360*
X100407Y104488*
X100248Y104509*
X100235Y104532*
X100308Y104659*
X100754*
X105180Y100234*
X105062Y100081*
X104934Y99772*
X104891Y99441*
X104934Y99109*
X105062Y98800*
X105266Y98535*
X105403Y98430*
Y93256*
X105324Y93206*
X105276Y93189*
X104979Y93312*
X104648Y93355*
X104316Y93312*
X104007Y93184*
X103742Y92980*
X103538Y92715*
X103410Y92406*
X103367Y92075*
X103410Y91743*
X103538Y91434*
X103742Y91169*
X104007Y90965*
X104316Y90837*
X104648Y90794*
X104979Y90837*
X105288Y90965*
X105553Y91169*
X105658Y91306*
X107326*
X107366Y91256*
X107368Y91230*
X107327Y91109*
X107122Y91024*
X106905Y90857*
X106738Y90639*
X106633Y90386*
X106597Y90115*
X106633Y89843*
X106738Y89590*
X106905Y89372*
X107122Y89205*
X107376Y89100*
X107647Y89065*
X107919Y89100*
X108173Y89205*
X108390Y89372*
X108557Y89590*
X108662Y89843*
X108664Y89861*
X108784Y89902*
X114330Y84356*
X114205Y84055*
X114162Y83723*
X114205Y83392*
X114333Y83083*
X114537Y82818*
X114802Y82614*
X114939Y82557*
X114971Y82480*
X115094Y82320*
X115312Y82102*
X115271Y81982*
X115111Y81961*
X114802Y81833*
X114756Y81797*
X111395Y81887*
X111268Y82051*
X111003Y82255*
X110694Y82383*
X110363Y82427*
X110031Y82383*
X109722Y82255*
X109457Y82051*
X109253Y81786*
X109125Y81477*
X109082Y81146*
X109125Y80814*
X109253Y80505*
X109457Y80240*
X109722Y80036*
X110031Y79908*
X110363Y79865*
X110694Y79908*
X111003Y80036*
X111268Y80240*
X111353Y80350*
X114255Y80273*
X114333Y80083*
X114537Y79818*
X114802Y79614*
X115111Y79486*
X115443Y79443*
X115614Y79465*
X116127Y78952*
X116055Y78844*
X115774Y78961*
X115443Y79004*
X115111Y78961*
X114802Y78833*
X114537Y78629*
X114333Y78364*
X114205Y78055*
X114162Y77724*
X114184Y77552*
X108204Y71572*
X93469*
X93271Y71546*
X93085Y71469*
X92926Y71347*
X92508Y70928*
X92009*
X91966Y71055*
X92193Y71230*
X92397Y71495*
X92524Y71804*
X92568Y72136*
X92524Y72467*
X92397Y72776*
X92193Y73041*
X91928Y73245*
X91706Y73337*
Y73474*
X91928Y73566*
X92193Y73770*
X92397Y74035*
X92524Y74344*
X92568Y74676*
X92524Y75007*
X92397Y75316*
X92193Y75581*
X91928Y75785*
X91619Y75913*
X91287Y75956*
X90956Y75913*
X90647Y75785*
X90381Y75581*
X90276Y75444*
X89472*
X89062Y75854*
X88903Y75976*
X88717Y76053*
X88519Y76079*
X88170*
X88015Y76198*
X87768Y76300*
X87503Y76335*
X86233*
X85967Y76300*
X85720Y76198*
X85508Y76035*
X85345Y75823*
X85243Y75576*
X85208Y75311*
X85243Y75045*
X85345Y74798*
X85508Y74586*
X85720Y74423*
X85967Y74321*
X86233Y74286*
X87503*
X87768Y74321*
X88015Y74423*
X88170Y74542*
X88200*
X88610Y74132*
X88769Y74010*
X88955Y73933*
X89154Y73907*
X90276*
X90381Y73770*
X90647Y73566*
X90869Y73474*
Y73337*
X90647Y73245*
X90381Y73041*
X90373Y73031*
X89599*
X89316Y73314*
X89157Y73436*
X88971Y73513*
X88773Y73539*
X88170*
X88015Y73658*
X87768Y73760*
X87503Y73795*
X86233*
X85967Y73760*
X85720Y73658*
X85508Y73495*
X85345Y73283*
X85243Y73036*
X85208Y72771*
X85243Y72505*
X85345Y72258*
X85508Y72046*
X85720Y71883*
X85967Y71781*
X86233Y71746*
X87503*
X87768Y71781*
X88015Y71883*
X88170Y72002*
X88454*
X88737Y71719*
X88896Y71597*
X89082Y71520*
X89281Y71494*
X90179*
X90381Y71230*
X90608Y71055*
X90565Y70928*
X88247*
X88227Y70955*
X88015Y71118*
X87768Y71220*
X87503Y71255*
X86233*
X85967Y71220*
X85720Y71118*
X85508Y70955*
X85345Y70743*
X85243Y70496*
X85208Y70231*
X85243Y69965*
X85345Y69718*
X85508Y69506*
X85720Y69343*
X85967Y69241*
X86233Y69206*
X87503*
X87768Y69241*
X88015Y69343*
X88078Y69391*
X91430*
X91479Y69274*
X90664Y68459*
X88170*
X88015Y68578*
X87768Y68680*
X87503Y68715*
X86233*
X85967Y68680*
X85720Y68578*
X85508Y68415*
X85345Y68203*
X85243Y67956*
X85208Y67691*
X85243Y67425*
X85345Y67178*
X85508Y66966*
X85720Y66803*
X85967Y66701*
X86233Y66666*
X87503*
X87768Y66701*
X88015Y66803*
X88170Y66922*
X90982*
X91181Y66948*
X91367Y67025*
X91526Y67147*
X92571Y68192*
X93849*
X93892Y68065*
X93750Y67956*
X93583Y67739*
X93478Y67485*
X93443Y67213*
X93462Y67062*
X93351Y66935*
X92684*
X92485Y66909*
X92300Y66832*
X92141Y66710*
X91350Y65919*
X88170*
X88015Y66038*
X87768Y66140*
X87503Y66175*
X86233*
X85967Y66140*
X85720Y66038*
X85508Y65875*
X85345Y65663*
X85243Y65416*
X85208Y65151*
X85243Y64885*
X85345Y64638*
X85508Y64426*
X85720Y64263*
X85967Y64161*
X86233Y64126*
X87503*
X87768Y64161*
X88015Y64263*
X88170Y64382*
X91668*
X91867Y64408*
X92052Y64485*
X92212Y64607*
X93002Y65398*
X93210*
X93360Y65248*
X93519Y65126*
X93704Y65049*
X93904Y65023*
X95082*
X95280Y65049*
X95357Y65081*
X95437Y64977*
X95343Y64854*
X95215Y64545*
X95172Y64213*
X95194Y64042*
X94531Y63379*
X88170*
X88015Y63498*
X87768Y63600*
X87503Y63635*
X86233*
X85967Y63600*
X85720Y63498*
X85508Y63335*
X85345Y63123*
X85243Y62876*
X85208Y62611*
X85243Y62345*
X85345Y62098*
X85508Y61886*
X85720Y61723*
X85967Y61621*
X86233Y61586*
X87503*
X87768Y61621*
X88015Y61723*
X88170Y61842*
X94849*
X95048Y61868*
X95234Y61945*
X95280Y61980*
X95371Y61890*
X95343Y61854*
X95215Y61545*
X95172Y61214*
X95215Y60882*
X95343Y60573*
X95547Y60308*
X95812Y60104*
X96121Y59976*
X96452Y59933*
X96784Y59976*
X97093Y60104*
X97358Y60308*
X97464Y60445*
X105033*
X105139Y60308*
X105404Y60104*
X105713Y59976*
X106045Y59933*
X106376Y59976*
X106685Y60104*
X106950Y60308*
X107056Y60445*
X114746*
X114851Y60308*
X115116Y60104*
X115425Y59976*
X115756Y59933*
X116088Y59976*
X116369Y60093*
X116441Y59985*
X115928Y59472*
X115756Y59494*
X115425Y59451*
X115116Y59323*
X114851Y59119*
X114746Y58982*
X107056*
X106950Y59119*
X106685Y59323*
X106376Y59451*
X106045Y59494*
X105713Y59451*
X105404Y59323*
X105139Y59119*
X105033Y58982*
X97464*
X97358Y59119*
X97093Y59323*
X96784Y59451*
X96452Y59494*
X96121Y59451*
X95812Y59323*
X95547Y59119*
X95343Y58854*
X95215Y58545*
X95172Y58214*
X95215Y57882*
X95343Y57573*
X95547Y57308*
X95812Y57104*
X96121Y56976*
X96452Y56933*
X96784Y56976*
X97093Y57104*
X97358Y57308*
X97464Y57445*
X105033*
X105139Y57308*
X105404Y57104*
X105713Y56976*
X106045Y56933*
X106376Y56976*
X106685Y57104*
X106950Y57308*
X107056Y57445*
X114746*
X114851Y57308*
X115116Y57104*
X115425Y56976*
X115756Y56933*
X116088Y56976*
X116397Y57104*
X116662Y57308*
X116866Y57573*
X116994Y57882*
X117037Y58214*
X117015Y58385*
X119923Y61293*
X120045Y61452*
X120122Y61638*
X120148Y61837*
Y72167*
X120511Y72529*
X120633Y72689*
X120710Y72874*
X120736Y73073*
Y78533*
X120710Y78732*
X120633Y78918*
X120511Y79077*
X116531Y83056*
X116552Y83083*
X116680Y83392*
X116723Y83723*
X116680Y84055*
X116552Y84364*
X116348Y84629*
X116083Y84833*
X115987Y84873*
X115986Y84874*
X108242Y92618*
X108083Y92740*
X107897Y92817*
X107699Y92843*
X106940*
Y98430*
X107077Y98535*
X107146Y98624*
X113604*
X113604*
X113789Y98547*
X113989Y98521*
X114187Y98547*
X114210Y98557*
X114318Y98416*
X114567Y98225*
X114857Y98105*
X115168Y98064*
X115479Y98105*
X115768Y98225*
X116017Y98416*
X116208Y98665*
X116328Y98955*
X116369Y99265*
X116328Y99576*
X116208Y99866*
X116017Y100115*
X115768Y100306*
X115479Y100426*
X115168Y100467*
X114857Y100426*
X114567Y100306*
X114318Y100115*
X114238Y100011*
X114187Y100032*
X114061Y100049*
X114049Y100058*
X113863Y100135*
X113665Y100161*
X107219*
X107077Y100346*
X106922Y100465*
X106914Y100528*
X106837Y100714*
X106715Y100873*
X101842Y105747*
Y106922*
X101479*
Y107569*
X101453Y107767*
X101376Y107953*
X101254Y108112*
X100590Y108776*
Y110363*
X100564Y110561*
X100487Y110747*
X100365Y110906*
X99742Y111529*
X99915Y111754*
X100043Y112063*
X100086Y112395*
X100043Y112726*
X99915Y113035*
X99711Y113300*
X99446Y113504*
X99137Y113632*
X98806Y113675*
X98634Y113653*
X97190Y115097*
X97031Y115219*
X96845Y115296*
X96647Y115322*
X88011*
X87812Y115296*
X87626Y115219*
X87467Y115097*
X87056Y114686*
X86934Y114527*
X86896Y114435*
X86233*
X85967Y114400*
X85720Y114298*
X85508Y114135*
X85345Y113923*
X85243Y113676*
X85208Y113411*
X85243Y113145*
X85345Y112898*
X85508Y112686*
X85720Y112523*
X85967Y112421*
X86233Y112386*
X87503*
X87768Y112421*
X88015Y112523*
X88227Y112686*
X88390Y112898*
X88492Y113145*
X88527Y113411*
X88495Y113658*
X88514Y113714*
X88561Y113785*
X89907*
X89950Y113658*
X89862Y113591*
X89679Y113352*
X89564Y113074*
X89541Y112903*
X91814*
X91791Y113074*
X91676Y113352*
X91493Y113591*
X91405Y113658*
X91448Y113785*
X96328*
X97547Y112566*
X97525Y112395*
X97568Y112063*
X97696Y111754*
X97900Y111489*
X98037Y111383*
Y111379*
X98063Y111180*
X98140Y110994*
X98262Y110835*
X99053Y110044*
Y108458*
X99079Y108259*
X99156Y108073*
X99278Y107914*
X99942Y107250*
Y106922*
X99579*
Y105253*
X99462Y105205*
X99243Y105424*
X99272Y105495*
X99311Y105791*
X99272Y106086*
X99158Y106361*
X98977Y106597*
X98741Y106779*
X98466Y106892*
X98171Y106931*
X97875Y106892*
X97600Y106779*
X97364Y106597*
X97183Y106361*
X97069Y106086*
X97030Y105791*
X97069Y105495*
X97183Y105220*
X97364Y104984*
X97600Y104802*
X97754Y104739*
X98860Y103634*
X98838Y103582*
X98795Y103251*
X98826Y103010*
X98706Y102951*
X97609Y104048*
X97449Y104170*
X97264Y104247*
X97065Y104273*
X95695*
X95240Y104728*
X95312Y104836*
X95368Y104812*
X95504Y104795*
Y105664*
X94635*
X94652Y105528*
X94676Y105472*
X94568Y105400*
X94225Y105743*
X94231Y105791*
X94192Y106086*
X94079Y106361*
X93897Y106597*
X93661Y106779*
X93386Y106892*
X93091Y106931*
X92818Y106895*
X88691Y111022*
X88532Y111145*
X88480Y111166*
X88390Y111383*
X88227Y111595*
X88015Y111758*
X87768Y111860*
X87503Y111895*
X86233*
X85967Y111860*
X85720Y111758*
X85508Y111595*
X85345Y111383*
X85243Y111136*
X85208Y110871*
X85243Y110605*
X85345Y110358*
X85508Y110146*
X85720Y109983*
X85967Y109881*
X86233Y109846*
X87330*
X87372Y109813*
X87558Y109737*
X87757Y109710*
X87830*
X90239Y107301*
X90180Y107180*
X90043Y107198*
X89871Y107176*
X88499Y108548*
X88492Y108596*
X88390Y108843*
X88227Y109055*
X88015Y109218*
X87768Y109320*
X87503Y109355*
X86233*
X85967Y109320*
X85720Y109218*
X85508Y109055*
X85345Y108843*
X85243Y108596*
X85208Y108331*
X85243Y108065*
X85345Y107818*
X85508Y107606*
X85720Y107443*
X85967Y107341*
X86233Y107306*
X87503*
X87560Y107313*
X88101Y106772*
X88017Y106676*
X88015Y106678*
X87768Y106780*
X87503Y106815*
X86233*
X85967Y106780*
X85720Y106678*
X85508Y106515*
X85345Y106303*
X85243Y106056*
X85208Y105791*
X85243Y105525*
X85345Y105278*
X85508Y105066*
X85720Y104903*
X85967Y104801*
X86233Y104766*
X86961*
X87056Y104642*
X87305Y104392*
X87257Y104275*
X86233*
X85967Y104240*
X85720Y104138*
X85508Y103975*
X85345Y103763*
X85243Y103516*
X85208Y103251*
X85243Y102985*
X85345Y102738*
X85508Y102526*
X85720Y102363*
X85967Y102261*
X86233Y102226*
X86896*
X86934Y102134*
X87056Y101975*
X87178Y101852*
X87130Y101735*
X86233*
X85967Y101700*
X85720Y101598*
X85508Y101435*
X85345Y101223*
X85243Y100976*
X85208Y100711*
X85243Y100445*
X85345Y100198*
X85508Y99986*
X85720Y99823*
X85967Y99721*
X86233Y99686*
X87303*
X87690Y99299*
X87631Y99178*
X87503Y99195*
X86233*
X85967Y99160*
X85720Y99058*
X85508Y98895*
X85345Y98683*
X85265Y98490*
X85251Y98479*
X83784Y97012*
X83662Y96853*
X83585Y96668*
X83559Y96469*
Y93199*
X83585Y93001*
X83662Y92815*
X83784Y92656*
X85074Y91366*
X85077Y91347*
X85040Y91220*
X84908Y91165*
X84749Y91043*
X79466Y85760*
X79344Y85601*
X79267Y85415*
X79241Y85217*
Y84519*
X78069Y83347*
X77947Y83188*
X77870Y83002*
X77844Y82804*
Y58611*
X71309Y52076*
X51646*
X51630Y52097*
X51689Y52233*
X51697Y52234*
X51941Y52335*
X52151Y52496*
X52312Y52706*
X52413Y52950*
X52430Y53086*
X51435*
Y53213*
X51308*
Y54208*
X51172Y54191*
X50928Y54090*
X50718Y53929*
X50557Y53719*
X50456Y53475*
X50438Y53337*
X50304Y53291*
X44946Y58650*
Y59424*
X42683*
Y57161*
X44260*
X50371Y51050*
X50323Y50933*
X49467*
X46931Y53470*
X46914Y53594*
X46837Y53780*
X46715Y53939*
Y53939*
X44949Y55705*
X44955Y55753*
X44916Y56048*
X44803Y56323*
X44621Y56559*
X44385Y56741*
X44110Y56854*
X43815Y56893*
X43519Y56854*
X43244Y56741*
X43008Y56559*
X42827Y56323*
X42713Y56048*
X42674Y55753*
X42713Y55457*
X42827Y55182*
X43008Y54946*
X43244Y54765*
X43519Y54651*
X43815Y54612*
X43862Y54618*
X44027Y54454*
X43967Y54333*
X43815Y54353*
X43519Y54314*
X43244Y54200*
X43008Y54019*
X42827Y53783*
X42713Y53508*
X42674Y53213*
X42713Y52917*
X42827Y52642*
X43008Y52406*
X43244Y52224*
X43519Y52111*
X43815Y52072*
X43862Y52078*
X47462Y48478*
X47565Y48399*
X47522Y48272*
X42178*
X41605Y48844*
X41033Y49417*
Y115936*
X44972Y119875*
X103998*
X120129Y103744*
G37*
G36*
X85243Y95365D02*
X85345Y95118D01*
X85508Y94906*
X85720Y94743*
X85967Y94641*
X86233Y94606*
X87503*
X87768Y94641*
X88015Y94743*
X88170Y94862*
X94773*
X96332Y93303*
X96260Y93195*
X95979Y93312*
X95648Y93355*
X95476Y93333*
X95175Y93634*
X95016Y93756*
X94830Y93833*
X94632Y93859*
X88170*
X88015Y93978*
X87768Y94080*
X87503Y94115*
X86233*
X85967Y94080*
X85720Y93978*
X85508Y93815*
X85345Y93603*
X85303Y93502*
X85174Y93474*
X85096Y93542*
Y95506*
X85223Y95514*
X85243Y95365*
G37*
G36*
X85307Y86065D02*
X85340Y85972D01*
X85243Y85736*
X85208Y85471*
X85243Y85205*
X85302Y85062*
X82895Y82656*
X82810Y82545*
X82683Y82588*
Y84171*
X84611Y86099*
X85290*
X85307Y86065*
G37*
G36*
X118056Y77023D02*
Y75678D01*
X117942Y75622*
X117928Y75633*
X117674Y75738*
X117403Y75774*
X117131Y75738*
X116878Y75633*
X116660Y75466*
X116493Y75249*
X116388Y74995*
X116353Y74724*
X116388Y74452*
X116493Y74198*
X116660Y73981*
X116878Y73814*
X117131Y73709*
X117403Y73673*
X117674Y73709*
X117754Y73742*
X117826Y73635*
X117693Y73502*
X117571Y73343*
X117494Y73157*
X117468Y72958*
Y63945*
X116795Y63271*
X116699Y63355*
X116866Y63573*
X116994Y63882*
X117037Y64213*
X116994Y64545*
X116866Y64854*
X116662Y65119*
X116525Y65224*
Y67580*
X116499Y67779*
X116422Y67964*
X116300Y68123*
X114919Y69504*
X114760Y69626*
X114575Y69703*
X114376Y69729*
X93648*
X93599Y69846*
X93788Y70035*
X108523*
X108721Y70061*
X108907Y70138*
X109066Y70260*
X115271Y76465*
X115443Y76443*
X115774Y76486*
X116083Y76614*
X116348Y76818*
X116552Y77083*
X116680Y77392*
X116723Y77724*
X116680Y78055*
X116563Y78336*
X116671Y78408*
X118056Y77023*
G37*
G36*
X103484Y68065D02*
X103342Y67956D01*
X103175Y67739*
X103070Y67485*
X103035Y67213*
X103054Y67062*
X102943Y66935*
X95634*
X95523Y67062*
X95542Y67213*
X95507Y67485*
X95402Y67739*
X95235Y67956*
X95093Y68065*
X95136Y68192*
X103441*
X103484Y68065*
G37*
G36*
X113196D02*
X113054Y67956D01*
X112887Y67739*
X112782Y67485*
X112747Y67213*
X112782Y66942*
X112887Y66688*
X113054Y66471*
X113272Y66304*
X113525Y66199*
X113797Y66163*
X114068Y66199*
X114321Y66304*
X114539Y66471*
X114706Y66688*
X114811Y66942*
X114833Y67112*
X114970Y67177*
X114988Y67165*
Y65224*
X114851Y65119*
X114647Y64854*
X114519Y64545*
X114476Y64213*
X114519Y63882*
X114647Y63573*
X114851Y63308*
X115116Y63104*
X115425Y62976*
X115756Y62933*
X116088Y62976*
X116397Y63104*
X116615Y63271*
X116699Y63175*
X115987Y62464*
X115756Y62494*
X115425Y62451*
X115116Y62323*
X114851Y62119*
X114746Y61982*
X107056*
X106950Y62119*
X106685Y62323*
X106376Y62451*
X106045Y62494*
X105713Y62451*
X105404Y62323*
X105139Y62119*
X105033Y61982*
X97464*
X97358Y62119*
X97093Y62323*
X96784Y62451*
X96452Y62494*
X96121Y62451*
X95840Y62334*
X95768Y62442*
X96281Y62955*
X96452Y62933*
X96784Y62976*
X97093Y63104*
X97358Y63308*
X97562Y63573*
X97690Y63882*
X97733Y64213*
X97690Y64545*
X97562Y64854*
X97358Y65119*
X97161Y65271*
X97204Y65398*
X102802*
X102952Y65248*
X103111Y65126*
X103296Y65049*
X103496Y65023*
X104148*
X104786Y64385*
X104764Y64213*
X104807Y63882*
X104935Y63573*
X105139Y63308*
X105404Y63104*
X105713Y62976*
X106045Y62933*
X106376Y62976*
X106685Y63104*
X106950Y63308*
X107154Y63573*
X107282Y63882*
X107325Y64213*
X107282Y64545*
X107154Y64854*
X106950Y65119*
X106685Y65323*
X106376Y65451*
X106045Y65494*
X105873Y65472*
X105010Y66335*
X104930Y66396*
X104900Y66563*
X104903Y66571*
X104994Y66688*
X105099Y66942*
X105134Y67213*
X105099Y67485*
X104994Y67739*
X104827Y67956*
X104685Y68065*
X104728Y68192*
X113153*
X113196Y68065*
G37*
%LNteensyconnectionboard-2*%
%LPC*%
G36*
X61716Y116651D02*
X61445Y116615D01*
X61192Y116510*
X60974Y116343*
X60807Y116126*
X60702Y115872*
X60667Y115600*
X60702Y115329*
X60807Y115075*
X60974Y114858*
X61192Y114691*
X61445Y114586*
X61716Y114550*
X61988Y114586*
X62241Y114691*
X62459Y114858*
X62626Y115075*
X62731Y115329*
X62766Y115600*
X62731Y115872*
X62626Y116126*
X62459Y116343*
X62241Y116510*
X61988Y116615*
X61716Y116651*
G37*
G36*
X50728D02*
X50456Y116615D01*
X50203Y116510*
X49985Y116343*
X49818Y116126*
X49713Y115872*
X49678Y115600*
X49713Y115329*
X49818Y115075*
X49985Y114858*
X50203Y114691*
X50456Y114586*
X50728Y114550*
X50999Y114586*
X51252Y114691*
X51470Y114858*
X51637Y115075*
X51742Y115329*
X51777Y115600*
X51742Y115872*
X51637Y116126*
X51470Y116343*
X51252Y116510*
X50999Y116615*
X50728Y116651*
G37*
G36*
X73152Y114300D02*
X71755D01*
Y113538*
X73152*
Y114300*
G37*
G36*
X71501D02*
X70104D01*
Y113538*
X71501*
Y114300*
G37*
G36*
X67945Y114547D02*
Y113538D01*
X68954*
X68931Y113709*
X68816Y113987*
X68633Y114226*
X68394Y114409*
X68116Y114524*
X67945Y114547*
G37*
G36*
X67691D02*
X67519Y114524D01*
X67241Y114409*
X67002Y114226*
X66819Y113987*
X66704Y113709*
X66681Y113538*
X67691*
Y114547*
G37*
G36*
X95933Y113531D02*
Y112522D01*
X96942*
X96919Y112693*
X96804Y112971*
X96621Y113210*
X96382Y113393*
X96104Y113508*
X95933Y113531*
G37*
G36*
X95679D02*
X95507Y113508D01*
X95229Y113393*
X94990Y113210*
X94807Y112971*
X94692Y112693*
X94669Y112522*
X95679*
Y113531*
G37*
G36*
X73152Y113284D02*
X71755D01*
Y112522*
X73152*
Y113284*
G37*
G36*
X71501D02*
X70104D01*
Y112522*
X71501*
Y113284*
G37*
G36*
X68954D02*
X67945D01*
Y112274*
X68116Y112297*
X68394Y112412*
X68633Y112595*
X68816Y112834*
X68931Y113112*
X68954Y113284*
G37*
G36*
X67691D02*
X66681D01*
X66704Y113112*
X66819Y112834*
X67002Y112595*
X67241Y112412*
X67519Y112297*
X67691Y112274*
Y113284*
G37*
G36*
X91814Y112649D02*
X90805D01*
Y111639*
X90976Y111662*
X91254Y111777*
X91493Y111960*
X91676Y112199*
X91791Y112477*
X91814Y112649*
G37*
G36*
X90551D02*
X89541D01*
X89564Y112477*
X89679Y112199*
X89862Y111960*
X90101Y111777*
X90379Y111662*
X90551Y111639*
Y112649*
G37*
G36*
X96942Y112268D02*
X95933D01*
Y111258*
X96104Y111281*
X96382Y111396*
X96621Y111579*
X96804Y111818*
X96919Y112096*
X96942Y112268*
G37*
G36*
X95679D02*
X94669D01*
X94692Y112096*
X94807Y111818*
X94990Y111579*
X95229Y111396*
X95507Y111281*
X95679Y111258*
Y112268*
G37*
G36*
X48768Y113881D02*
X48436Y113838D01*
X48127Y113710*
X47862Y113506*
X47658Y113241*
X47530Y112932*
X47487Y112600*
X47530Y112269*
X47658Y111960*
X47862Y111695*
X48127Y111491*
X48436Y111363*
X48562Y111346*
X48927Y110982*
X48871Y110868*
X48768Y110881*
X48436Y110838*
X48127Y110710*
X47862Y110506*
X47658Y110241*
X47530Y109932*
X47487Y109601*
X47530Y109269*
X47658Y108960*
X47862Y108695*
X48127Y108491*
X48191Y108464*
X48224Y108422*
X48773Y107874*
X48719Y107747*
X48469Y107714*
X48191Y107599*
X47952Y107416*
X47769Y107177*
X47654Y106899*
X47631Y106728*
X48768*
Y106601*
X48895*
Y105464*
X49066Y105487*
X49344Y105602*
X49583Y105785*
X49766Y106024*
X49881Y106302*
X49914Y106553*
X50041Y106606*
X56860Y99786*
X57019Y99664*
X57205Y99587*
X57404Y99561*
X71247*
X71445Y99587*
X71631Y99664*
X71659Y99686*
X72263*
X72528Y99721*
X72775Y99823*
X72987Y99986*
X73150Y100198*
X73252Y100445*
X73287Y100711*
X73252Y100976*
X73150Y101223*
X72987Y101435*
X72775Y101598*
X72528Y101700*
X72263Y101735*
X70993*
X70727Y101700*
X70480Y101598*
X70268Y101435*
X70105Y101223*
X70053Y101098*
X68674*
X68631Y101225*
X68742Y101310*
X69914Y102482*
X70325*
X70480Y102363*
X70727Y102261*
X70993Y102226*
X72263*
X72528Y102261*
X72775Y102363*
X72987Y102526*
X73150Y102738*
X73252Y102985*
X73287Y103251*
X73252Y103516*
X73150Y103763*
X72987Y103975*
X72775Y104138*
X72528Y104240*
X72263Y104275*
X70993*
X70727Y104240*
X70480Y104138*
X70325Y104019*
X69596*
X69397Y103993*
X69211Y103916*
X69052Y103794*
X67880Y102622*
X62360*
X62317Y102749*
X62459Y102858*
X62626Y103075*
X62731Y103329*
X62766Y103601*
X62731Y103872*
X62626Y104126*
X62459Y104343*
X62241Y104510*
X61988Y104615*
X61716Y104651*
X61445Y104615*
X61192Y104510*
X60974Y104343*
X60807Y104126*
X60702Y103872*
X60667Y103601*
X60702Y103329*
X60807Y103075*
X60974Y102858*
X61116Y102749*
X61073Y102622*
X58484*
X51227Y109879*
Y110537*
X51201Y110736*
X51124Y110922*
X51001Y111081*
X49949Y112134*
X50005Y112269*
X50048Y112600*
X50005Y112932*
X49877Y113241*
X49673Y113506*
X49408Y113710*
X49099Y113838*
X48768Y113881*
G37*
G36*
X59757D02*
X59425Y113838D01*
X59116Y113710*
X58851Y113506*
X58647Y113241*
X58519Y112932*
X58476Y112600*
X58519Y112269*
X58647Y111960*
X58851Y111695*
X59116Y111491*
X59425Y111363*
X59757Y111320*
X59928Y111342*
X60441Y110829*
X60369Y110721*
X60088Y110838*
X59757Y110881*
X59425Y110838*
X59116Y110710*
X58851Y110506*
X58647Y110241*
X58519Y109932*
X58476Y109601*
X58519Y109269*
X58647Y108960*
X58851Y108695*
X59116Y108491*
X59425Y108363*
X59757Y108320*
X60088Y108363*
X60397Y108491*
X60662Y108695*
X60767Y108832*
X68007*
X68163Y108676*
X68322Y108554*
X68508Y108477*
X68707Y108451*
X69887*
X69971Y108355*
X69968Y108331*
X70003Y108065*
X70105Y107818*
X70268Y107606*
X70480Y107443*
X70727Y107341*
X70993Y107306*
X72263*
X72528Y107341*
X72775Y107443*
X72987Y107606*
X73150Y107818*
X73252Y108065*
X73287Y108331*
X73252Y108596*
X73150Y108843*
X72987Y109055*
X72775Y109218*
X72528Y109320*
X72263Y109355*
X71690*
X71326Y109719*
X71379Y109846*
X72263*
X72528Y109881*
X72775Y109983*
X72987Y110146*
X73150Y110358*
X73252Y110605*
X73287Y110871*
X73252Y111136*
X73150Y111383*
X72987Y111595*
X72775Y111758*
X72528Y111860*
X72263Y111895*
X70993*
X70727Y111860*
X70480Y111758*
X70325Y111639*
X61805*
X61015Y112429*
X61037Y112600*
X60994Y112932*
X60866Y113241*
X60662Y113506*
X60397Y113710*
X60088Y113838*
X59757Y113881*
G37*
G36*
X101805Y111484D02*
X101534Y111449D01*
X101280Y111344*
X101063Y111177*
X100896Y110959*
X100791Y110706*
X100755Y110434*
X100791Y110163*
X100896Y109910*
X101063Y109692*
X101280Y109525*
X101534Y109420*
X101805Y109385*
X102077Y109420*
X102331Y109525*
X102548Y109692*
X102715Y109910*
X102820Y110163*
X102856Y110434*
X102820Y110706*
X102715Y110959*
X102548Y111177*
X102331Y111344*
X102077Y111449*
X101805Y111484*
G37*
G36*
X92806D02*
X92534Y111449D01*
X92280Y111344*
X92063Y111177*
X91896Y110959*
X91791Y110706*
X91755Y110434*
X91791Y110163*
X91896Y109910*
X92063Y109692*
X92280Y109525*
X92534Y109420*
X92806Y109385*
X93077Y109420*
X93331Y109525*
X93548Y109692*
X93715Y109910*
X93820Y110163*
X93856Y110434*
X93820Y110706*
X93715Y110959*
X93548Y111177*
X93331Y111344*
X93077Y111449*
X92806Y111484*
G37*
G36*
X106299Y108197D02*
Y107188D01*
X107308*
X107285Y107359*
X107170Y107637*
X106987Y107876*
X106748Y108059*
X106470Y108174*
X106299Y108197*
G37*
G36*
X106045D02*
X105873Y108174D01*
X105595Y108059*
X105356Y107876*
X105173Y107637*
X105058Y107359*
X105035Y107188*
X106045*
Y108197*
G37*
G36*
X59884Y107737D02*
Y106728D01*
X60893*
X60870Y106899*
X60755Y107177*
X60572Y107416*
X60333Y107599*
X60055Y107714*
X59884Y107737*
G37*
G36*
X59630D02*
X59458Y107714D01*
X59180Y107599*
X58941Y107416*
X58758Y107177*
X58643Y106899*
X58620Y106728*
X59630*
Y107737*
G37*
G36*
X107308Y106934D02*
X106299D01*
Y105924*
X106470Y105947*
X106748Y106062*
X106987Y106245*
X107170Y106484*
X107285Y106762*
X107308Y106934*
G37*
G36*
X106045D02*
X105035D01*
X105058Y106762*
X105173Y106484*
X105356Y106245*
X105595Y106062*
X105873Y105947*
X106045Y105924*
Y106934*
G37*
G36*
X95758Y106786D02*
Y105918D01*
X96626*
X96609Y106053*
X96508Y106297*
X96347Y106507*
X96137Y106668*
X95893Y106769*
X95758Y106786*
G37*
G36*
X95504D02*
X95368Y106769D01*
X95124Y106668*
X94914Y106507*
X94753Y106297*
X94652Y106053*
X94635Y105918*
X95504*
Y106786*
G37*
G36*
X60893Y106474D02*
X59884D01*
Y105464*
X60055Y105487*
X60333Y105602*
X60572Y105785*
X60755Y106024*
X60870Y106302*
X60893Y106474*
G37*
G36*
X59630D02*
X58620D01*
X58643Y106302*
X58758Y106024*
X58941Y105785*
X59180Y105602*
X59458Y105487*
X59630Y105464*
Y106474*
G37*
G36*
X48641D02*
X47631D01*
X47654Y106302*
X47769Y106024*
X47952Y105785*
X48191Y105602*
X48469Y105487*
X48641Y105464*
Y106474*
G37*
G36*
X96626Y105664D02*
X95758D01*
Y104795*
X95893Y104812*
X96137Y104913*
X96347Y105074*
X96508Y105284*
X96609Y105528*
X96626Y105664*
G37*
G36*
X67792Y107071D02*
X67461Y107028D01*
X67152Y106900*
X66886Y106696*
X66683Y106431*
X66555Y106122*
X66511Y105791*
X66555Y105459*
X66683Y105150*
X66886Y104885*
X67152Y104681*
X67461Y104553*
X67792Y104510*
X68124Y104553*
X68433Y104681*
X68698Y104885*
X68803Y105022*
X70325*
X70480Y104903*
X70727Y104801*
X70993Y104766*
X72263*
X72528Y104801*
X72775Y104903*
X72987Y105066*
X73150Y105278*
X73252Y105525*
X73287Y105791*
X73252Y106056*
X73150Y106303*
X72987Y106515*
X72775Y106678*
X72528Y106780*
X72263Y106815*
X70993*
X70727Y106780*
X70480Y106678*
X70325Y106559*
X68803*
X68698Y106696*
X68433Y106900*
X68124Y107028*
X67792Y107071*
G37*
G36*
X50728Y104651D02*
X50456Y104615D01*
X50203Y104510*
X49985Y104343*
X49818Y104126*
X49713Y103872*
X49678Y103601*
X49713Y103329*
X49818Y103075*
X49985Y102858*
X50203Y102691*
X50456Y102586*
X50728Y102550*
X50999Y102586*
X51252Y102691*
X51470Y102858*
X51637Y103075*
X51742Y103329*
X51777Y103601*
X51742Y103872*
X51637Y104126*
X51470Y104343*
X51252Y104510*
X50999Y104615*
X50728Y104651*
G37*
G36*
X117128Y103316D02*
X116856Y103280D01*
X116603Y103175*
X116385Y103008*
X116218Y102791*
X116113Y102537*
X116078Y102265*
X116113Y101994*
X116218Y101740*
X116385Y101523*
X116603Y101356*
X116856Y101251*
X117128Y101215*
X117399Y101251*
X117653Y101356*
X117870Y101523*
X118037Y101740*
X118142Y101994*
X118178Y102265*
X118142Y102537*
X118037Y102791*
X117870Y103008*
X117653Y103175*
X117399Y103280*
X117128Y103316*
G37*
G36*
X61716Y99348D02*
X61445Y99312D01*
X61192Y99207*
X60974Y99040*
X60807Y98823*
X60702Y98569*
X60667Y98298*
X60686Y98146*
X60603Y98050*
X51841*
X51758Y98146*
X51777Y98298*
X51742Y98569*
X51637Y98823*
X51470Y99040*
X51252Y99207*
X50999Y99312*
X50728Y99348*
X50456Y99312*
X50203Y99207*
X49985Y99040*
X49818Y98823*
X49713Y98569*
X49678Y98298*
X49713Y98026*
X49818Y97772*
X49909Y97655*
X49912Y97647*
X49882Y97480*
X49802Y97419*
X48939Y96556*
X48768Y96578*
X48436Y96535*
X48127Y96407*
X47862Y96203*
X47658Y95938*
X47530Y95629*
X47487Y95298*
X47530Y94966*
X47658Y94657*
X47862Y94392*
X48127Y94188*
X48436Y94060*
X48768Y94017*
X49099Y94060*
X49408Y94188*
X49673Y94392*
X49877Y94657*
X50005Y94966*
X50048Y95298*
X50026Y95469*
X50664Y96107*
X51316*
X51516Y96133*
X51701Y96210*
X51860Y96332*
X52041Y96513*
X59059*
X59089Y96386*
X58851Y96203*
X58647Y95938*
X58519Y95629*
X58476Y95298*
X58519Y94966*
X58647Y94657*
X58851Y94392*
X59116Y94188*
X59425Y94060*
X59757Y94017*
X60088Y94060*
X60397Y94188*
X60662Y94392*
X60767Y94529*
X65709*
X65908Y94555*
X66094Y94632*
X66253Y94754*
X66361Y94862*
X70325*
X70480Y94743*
X70727Y94641*
X70993Y94606*
X72263*
X72528Y94641*
X72775Y94743*
X72987Y94906*
X73150Y95118*
X73252Y95365*
X73287Y95631*
X73252Y95896*
X73150Y96143*
X72987Y96355*
X72775Y96518*
X72528Y96620*
X72263Y96655*
X70993*
X70727Y96620*
X70480Y96518*
X70325Y96399*
X66042*
X65843Y96373*
X65658Y96296*
X65499Y96174*
X65391Y96066*
X62675*
X62636Y96188*
X62690Y96210*
X62849Y96332*
X63030Y96513*
X64312*
X64511Y96539*
X64697Y96616*
X64856Y96738*
X65520Y97402*
X70325*
X70480Y97283*
X70727Y97181*
X70993Y97146*
X72263*
X72528Y97181*
X72775Y97283*
X72987Y97446*
X73150Y97658*
X73252Y97905*
X73287Y98171*
X73252Y98436*
X73150Y98683*
X72987Y98895*
X72775Y99058*
X72528Y99160*
X72263Y99195*
X70993*
X70727Y99160*
X70480Y99058*
X70325Y98939*
X65201*
X65002Y98913*
X64817Y98836*
X64658Y98714*
X63994Y98050*
X62830*
X62746Y98146*
X62766Y98298*
X62731Y98569*
X62626Y98823*
X62459Y99040*
X62241Y99207*
X61988Y99312*
X61716Y99348*
G37*
G36*
X115295Y97322D02*
Y96393D01*
X116224*
X116204Y96543*
X116097Y96802*
X115926Y97024*
X115704Y97195*
X115445Y97302*
X115295Y97322*
G37*
G36*
X115041D02*
X114890Y97302D01*
X114631Y97195*
X114409Y97024*
X114238Y96802*
X114131Y96543*
X114111Y96393*
X115041*
Y97322*
G37*
G36*
Y96139D02*
X114111D01*
X114131Y95988*
X114238Y95729*
X114409Y95507*
X114631Y95336*
X114890Y95229*
X115041Y95209*
Y96139*
G37*
G36*
X116224D02*
X115295D01*
Y95209*
X115445Y95229*
X115704Y95336*
X115926Y95507*
X116097Y95729*
X116204Y95988*
X116224Y96139*
G37*
G36*
X59884Y93434D02*
Y92425D01*
X60893*
X60870Y92596*
X60755Y92874*
X60572Y93113*
X60333Y93296*
X60055Y93411*
X59884Y93434*
G37*
G36*
X48895D02*
Y92425D01*
X49904*
X49881Y92596*
X49766Y92874*
X49583Y93113*
X49344Y93296*
X49066Y93411*
X48895Y93434*
G37*
G36*
X59630D02*
X59458Y93411D01*
X59180Y93296*
X58941Y93113*
X58758Y92874*
X58643Y92596*
X58620Y92425*
X59630*
Y93434*
G37*
G36*
X48641D02*
X48469Y93411D01*
X48191Y93296*
X47952Y93113*
X47769Y92874*
X47654Y92596*
X47631Y92425*
X48641*
Y93434*
G37*
G36*
X117128Y94316D02*
X116856Y94280D01*
X116603Y94175*
X116385Y94008*
X116218Y93791*
X116113Y93537*
X116078Y93266*
X116113Y92994*
X116218Y92740*
X116385Y92523*
X116603Y92356*
X116856Y92251*
X117128Y92215*
X117399Y92251*
X117653Y92356*
X117870Y92523*
X118037Y92740*
X118142Y92994*
X118178Y93266*
X118142Y93537*
X118037Y93791*
X117870Y94008*
X117653Y94175*
X117399Y94280*
X117128Y94316*
G37*
G36*
X101775Y93211D02*
Y92202D01*
X102784*
X102761Y92373*
X102646Y92651*
X102463Y92890*
X102224Y93073*
X101946Y93188*
X101775Y93211*
G37*
G36*
X101521D02*
X101349Y93188D01*
X101071Y93073*
X100832Y92890*
X100649Y92651*
X100534Y92373*
X100511Y92202*
X101521*
Y93211*
G37*
G36*
X67792Y94371D02*
X67461Y94328D01*
X67152Y94200*
X66886Y93996*
X66683Y93731*
X66555Y93422*
X66511Y93091*
X66555Y92759*
X66683Y92450*
X66886Y92185*
X67152Y91981*
X67374Y91889*
Y91752*
X67152Y91660*
X66886Y91456*
X66683Y91191*
X66555Y90882*
X66511Y90551*
X66555Y90219*
X66683Y89910*
X66886Y89645*
X67152Y89441*
X67461Y89313*
X67717Y89279*
Y89151*
X67486Y89121*
X67177Y88993*
X66912Y88789*
X66708Y88524*
X66580Y88215*
X66549Y87980*
X66475Y87942*
X66415Y87931*
X66271Y88041*
X66086Y88118*
X65887Y88144*
X61904*
X61895Y88271*
X61988Y88283*
X62241Y88388*
X62459Y88555*
X62626Y88773*
X62731Y89026*
X62766Y89298*
X62731Y89569*
X62626Y89823*
X62459Y90040*
X62241Y90207*
X61988Y90312*
X61716Y90348*
X61445Y90312*
X61192Y90207*
X60974Y90040*
X60807Y89823*
X60702Y89569*
X60667Y89298*
X60702Y89026*
X60807Y88773*
X60974Y88555*
X61192Y88388*
X61445Y88283*
X61538Y88271*
X61529Y88144*
X56515*
X56316Y88118*
X56130Y88041*
X55971Y87919*
X52640Y84588*
X51152*
X51127Y84715*
X51252Y84767*
X51470Y84934*
X51637Y85151*
X51742Y85405*
X51777Y85676*
X51742Y85948*
X51637Y86202*
X51470Y86419*
X51252Y86586*
X50999Y86691*
X50728Y86727*
X50456Y86691*
X50203Y86586*
X49985Y86419*
X49818Y86202*
X49713Y85948*
X49678Y85676*
X49713Y85405*
X49818Y85151*
X49985Y84934*
X50203Y84767*
X50328Y84715*
X50303Y84588*
X49911*
X49712Y84562*
X49526Y84485*
X49367Y84363*
X48939Y83935*
X48768Y83957*
X48436Y83914*
X48127Y83786*
X47862Y83582*
X47658Y83317*
X47530Y83008*
X47487Y82677*
X47530Y82345*
X47658Y82036*
X47862Y81771*
X48127Y81567*
X48436Y81439*
X48768Y81396*
X49099Y81439*
X49408Y81567*
X49673Y81771*
X49877Y82036*
X50005Y82345*
X50048Y82677*
X50026Y82848*
X50229Y83051*
X52959*
X53157Y83077*
X53343Y83154*
X53502Y83276*
X56833Y86607*
X60861*
X60923Y86480*
X60807Y86329*
X60702Y86075*
X60667Y85803*
X60702Y85532*
X60807Y85278*
X60974Y85061*
X61192Y84894*
X61445Y84789*
X61716Y84753*
X61988Y84789*
X62241Y84894*
X62459Y85061*
X62626Y85278*
X62731Y85532*
X62766Y85803*
X62731Y86075*
X62626Y86329*
X62510Y86480*
X62572Y86607*
X65569*
X67249Y84927*
X67408Y84805*
X67593Y84728*
X67792Y84702*
X70325*
X70480Y84583*
X70727Y84481*
X70993Y84446*
X72263*
X72528Y84481*
X72775Y84583*
X72987Y84746*
X73150Y84958*
X73252Y85205*
X73287Y85471*
X73252Y85736*
X73150Y85983*
X72987Y86195*
X72775Y86358*
X72528Y86460*
X72263Y86495*
X70993*
X70727Y86460*
X70480Y86358*
X70325Y86239*
X68110*
X67868Y86481*
X67914Y86615*
X68149Y86646*
X68458Y86774*
X68723Y86978*
X68829Y87115*
X70500*
X70727Y87021*
X70993Y86986*
X72263*
X72528Y87021*
X72775Y87123*
X72987Y87286*
X73150Y87498*
X73252Y87745*
X73287Y88011*
X73252Y88276*
X73150Y88523*
X72987Y88735*
X72775Y88898*
X72528Y89000*
X72263Y89035*
X70993*
X70727Y89000*
X70480Y88898*
X70268Y88735*
X70204Y88652*
X68829*
X68723Y88789*
X68458Y88993*
X68149Y89121*
X67892Y89155*
Y89283*
X68124Y89313*
X68433Y89441*
X68698Y89645*
X68803Y89782*
X70325*
X70480Y89663*
X70727Y89561*
X70993Y89526*
X72263*
X72528Y89561*
X72775Y89663*
X72987Y89826*
X73150Y90038*
X73252Y90285*
X73287Y90551*
X73252Y90816*
X73150Y91063*
X72987Y91275*
X72775Y91438*
X72528Y91540*
X72263Y91575*
X70993*
X70727Y91540*
X70480Y91438*
X70325Y91319*
X68803*
X68698Y91456*
X68433Y91660*
X68211Y91752*
Y91889*
X68433Y91981*
X68698Y92185*
X68803Y92322*
X70325*
X70480Y92203*
X70727Y92101*
X70993Y92066*
X72263*
X72528Y92101*
X72775Y92203*
X72987Y92366*
X73150Y92578*
X73252Y92825*
X73287Y93091*
X73252Y93356*
X73150Y93603*
X72987Y93815*
X72775Y93978*
X72528Y94080*
X72263Y94115*
X70993*
X70727Y94080*
X70480Y93978*
X70325Y93859*
X68803*
X68698Y93996*
X68433Y94200*
X68124Y94328*
X67792Y94371*
G37*
G36*
X60893Y92171D02*
X59884D01*
Y91161*
X60055Y91184*
X60333Y91299*
X60572Y91482*
X60755Y91721*
X60870Y91999*
X60893Y92171*
G37*
G36*
X49904D02*
X48895D01*
Y91161*
X49066Y91184*
X49344Y91299*
X49583Y91482*
X49766Y91721*
X49881Y91999*
X49904Y92171*
G37*
G36*
X59630D02*
X58620D01*
X58643Y91999*
X58758Y91721*
X58941Y91482*
X59180Y91299*
X59458Y91184*
X59630Y91161*
Y92171*
G37*
G36*
X48641D02*
X47631D01*
X47654Y91999*
X47769Y91721*
X47952Y91482*
X48191Y91299*
X48469Y91184*
X48641Y91161*
Y92171*
G37*
G36*
X102784Y91948D02*
X101775D01*
Y90938*
X101946Y90961*
X102224Y91076*
X102463Y91259*
X102646Y91498*
X102761Y91776*
X102784Y91948*
G37*
G36*
X101521D02*
X100511D01*
X100534Y91776*
X100649Y91498*
X100832Y91259*
X101071Y91076*
X101349Y90961*
X101521Y90938*
Y91948*
G37*
G36*
X92648Y91164D02*
X92376Y91129D01*
X92123Y91024*
X91905Y90857*
X91738Y90639*
X91633Y90386*
X91597Y90115*
X91633Y89843*
X91738Y89590*
X91905Y89372*
X92123Y89205*
X92376Y89100*
X92648Y89065*
X92919Y89100*
X93173Y89205*
X93390Y89372*
X93557Y89590*
X93662Y89843*
X93698Y90115*
X93662Y90386*
X93557Y90639*
X93390Y90857*
X93173Y91024*
X92919Y91129*
X92648Y91164*
G37*
G36*
X50728Y90348D02*
X50456Y90312D01*
X50203Y90207*
X49985Y90040*
X49818Y89823*
X49713Y89569*
X49678Y89298*
X49713Y89026*
X49818Y88773*
X49985Y88555*
X50203Y88388*
X50456Y88283*
X50728Y88247*
X50999Y88283*
X51252Y88388*
X51470Y88555*
X51637Y88773*
X51742Y89026*
X51777Y89298*
X51742Y89569*
X51637Y89823*
X51470Y90040*
X51252Y90207*
X50999Y90312*
X50728Y90348*
G37*
G36*
X117403Y87774D02*
X117131Y87738D01*
X116878Y87633*
X116660Y87466*
X116493Y87249*
X116388Y86995*
X116353Y86723*
X116388Y86452*
X116493Y86198*
X116660Y85981*
X116878Y85814*
X117131Y85709*
X117403Y85673*
X117674Y85709*
X117928Y85814*
X118145Y85981*
X118312Y86198*
X118417Y86452*
X118452Y86723*
X118417Y86995*
X118312Y87249*
X118145Y87466*
X117928Y87633*
X117674Y87738*
X117403Y87774*
G37*
G36*
X108005Y86854D02*
X107733Y86818D01*
X107480Y86713*
X107262Y86546*
X107095Y86329*
X106990Y86075*
X106955Y85803*
X106990Y85532*
X107095Y85278*
X107262Y85061*
X107480Y84894*
X107733Y84789*
X108005Y84753*
X108276Y84789*
X108529Y84894*
X108747Y85061*
X108914Y85278*
X109019Y85532*
X109054Y85803*
X109019Y86075*
X108914Y86329*
X108747Y86546*
X108529Y86713*
X108276Y86818*
X108005Y86854*
G37*
G36*
X94493D02*
X94221Y86818D01*
X93968Y86713*
X93750Y86546*
X93583Y86329*
X93478Y86075*
X93443Y85803*
X93478Y85532*
X93583Y85278*
X93750Y85061*
X93968Y84894*
X94221Y84789*
X94493Y84753*
X94764Y84789*
X95017Y84894*
X95235Y85061*
X95402Y85278*
X95507Y85532*
X95542Y85803*
X95507Y86075*
X95402Y86329*
X95235Y86546*
X95017Y86713*
X94764Y86818*
X94493Y86854*
G37*
G36*
X96579Y83940D02*
Y82931D01*
X97589*
X97566Y83102*
X97451Y83380*
X97268Y83619*
X97029Y83802*
X96751Y83917*
X96579Y83940*
G37*
G36*
X96325D02*
X96154Y83917D01*
X95876Y83802*
X95637Y83619*
X95454Y83380*
X95339Y83102*
X95316Y82931*
X96325*
Y83940*
G37*
G36*
X67665Y84211D02*
X67334Y84168D01*
X67025Y84040*
X66759Y83836*
X66556Y83571*
X66428Y83262*
X66384Y82931*
X66428Y82599*
X66556Y82290*
X66759Y82025*
X67025Y81821*
X67259Y81724*
Y81587*
X67050Y81500*
X66785Y81296*
X66581Y81031*
X66453Y80722*
X66410Y80391*
X66453Y80059*
X66581Y79750*
X66785Y79485*
X67050Y79281*
X67359Y79153*
X67691Y79110*
X68022Y79153*
X68331Y79281*
X68596Y79485*
X68701Y79622*
X70325*
X70480Y79503*
X70727Y79401*
X70993Y79366*
X72263*
X72528Y79401*
X72775Y79503*
X72987Y79666*
X73150Y79878*
X73252Y80125*
X73287Y80391*
X73252Y80656*
X73150Y80903*
X72987Y81115*
X72775Y81278*
X72528Y81380*
X72263Y81415*
X70993*
X70727Y81380*
X70480Y81278*
X70325Y81159*
X68701*
X68596Y81296*
X68331Y81500*
X68096Y81597*
Y81734*
X68306Y81821*
X68571Y82025*
X68676Y82162*
X70325*
X70480Y82043*
X70727Y81941*
X70993Y81906*
X72263*
X72528Y81941*
X72775Y82043*
X72987Y82206*
X73150Y82418*
X73252Y82665*
X73287Y82931*
X73252Y83196*
X73150Y83443*
X72987Y83655*
X72775Y83818*
X72528Y83920*
X72263Y83955*
X70993*
X70727Y83920*
X70480Y83818*
X70325Y83699*
X68676*
X68571Y83836*
X68306Y84040*
X67997Y84168*
X67665Y84211*
G37*
G36*
X97589Y82677D02*
X96579D01*
Y81667*
X96751Y81690*
X97029Y81805*
X97268Y81988*
X97451Y82227*
X97566Y82505*
X97589Y82677*
G37*
G36*
X96325D02*
X95316D01*
X95339Y82505*
X95454Y82227*
X95637Y81988*
X95876Y81805*
X96154Y81690*
X96325Y81667*
Y82677*
G37*
G36*
X59757Y84084D02*
X59425Y84041D01*
X59116Y83913*
X58851Y83709*
X58647Y83444*
X58519Y83135*
X58476Y82804*
X58519Y82472*
X58647Y82163*
X58851Y81898*
X59116Y81694*
X59425Y81566*
X59757Y81523*
X60088Y81566*
X60397Y81694*
X60656Y81893*
X61873Y80676*
X61813Y80556*
X61691Y80572*
X60767*
X60662Y80709*
X60397Y80913*
X60088Y81041*
X59757Y81084*
X59425Y81041*
X59116Y80913*
X58851Y80709*
X58647Y80444*
X58519Y80135*
X58476Y79804*
X58519Y79472*
X58647Y79163*
X58851Y78898*
X59116Y78694*
X59425Y78566*
X59757Y78523*
X60088Y78566*
X60397Y78694*
X60662Y78898*
X60767Y79035*
X61372*
X62717Y77690*
X62657Y77570*
X62641Y77572*
X60767*
X60662Y77709*
X60397Y77913*
X60088Y78041*
X59757Y78084*
X59425Y78041*
X59116Y77913*
X58851Y77709*
X58647Y77444*
X58519Y77135*
X58476Y76804*
X58519Y76472*
X58647Y76163*
X58851Y75898*
X59116Y75694*
X59425Y75566*
X59757Y75523*
X60088Y75566*
X60397Y75694*
X60662Y75898*
X60767Y76035*
X62323*
X63851Y74507*
X63767Y74411*
X63692Y74469*
X63506Y74546*
X63307Y74572*
X60767*
X60662Y74709*
X60397Y74913*
X60088Y75041*
X59757Y75084*
X59425Y75041*
X59116Y74913*
X58851Y74709*
X58647Y74444*
X58519Y74135*
X58476Y73804*
X58519Y73472*
X58647Y73163*
X58851Y72898*
X59116Y72694*
X59425Y72566*
X59757Y72523*
X60088Y72566*
X60397Y72694*
X60662Y72898*
X60767Y73035*
X62989*
X68877Y67147*
X69036Y67025*
X69222Y66948*
X69420Y66922*
X70325*
X70480Y66803*
X70727Y66701*
X70993Y66666*
X72263*
X72528Y66701*
X72775Y66803*
X72987Y66966*
X73150Y67178*
X73252Y67425*
X73287Y67691*
X73252Y67956*
X73150Y68203*
X72987Y68415*
X72775Y68578*
X72528Y68680*
X72263Y68715*
X70993*
X70727Y68680*
X70480Y68578*
X70325Y68459*
X69739*
X68671Y69527*
X68755Y69623*
X68830Y69565*
X69016Y69488*
X69215Y69462*
X70325*
X70480Y69343*
X70727Y69241*
X70993Y69206*
X72263*
X72528Y69241*
X72775Y69343*
X72987Y69506*
X73150Y69718*
X73252Y69965*
X73287Y70231*
X73252Y70496*
X73150Y70743*
X72987Y70955*
X72775Y71118*
X72528Y71220*
X72263Y71255*
X70993*
X70727Y71220*
X70480Y71118*
X70325Y70999*
X69533*
X68648Y71884*
X68708Y72004*
X68724Y72002*
X70325*
X70480Y71883*
X70727Y71781*
X70993Y71746*
X72263*
X72528Y71781*
X72775Y71883*
X72987Y72046*
X73150Y72258*
X73252Y72505*
X73287Y72771*
X73252Y73036*
X73150Y73283*
X72987Y73495*
X72775Y73658*
X72528Y73760*
X72263Y73795*
X70993*
X70727Y73760*
X70480Y73658*
X70325Y73539*
X69042*
X68143Y74438*
X68202Y74558*
X68326Y74542*
X70325*
X70480Y74423*
X70727Y74321*
X70993Y74286*
X72263*
X72528Y74321*
X72775Y74423*
X72987Y74586*
X73150Y74798*
X73252Y75045*
X73287Y75311*
X73252Y75576*
X73150Y75823*
X72987Y76035*
X72775Y76198*
X72528Y76300*
X72263Y76335*
X70993*
X70727Y76300*
X70480Y76198*
X70325Y76079*
X68644*
X61376Y83347*
X61217Y83469*
X61031Y83546*
X60833Y83572*
X60767*
X60662Y83709*
X60397Y83913*
X60088Y84041*
X59757Y84084*
G37*
G36*
X106172Y80940D02*
Y79931D01*
X107181*
X107158Y80102*
X107043Y80380*
X106860Y80619*
X106621Y80802*
X106343Y80917*
X106172Y80940*
G37*
G36*
X105918D02*
X105746Y80917D01*
X105468Y80802*
X105229Y80619*
X105046Y80380*
X104931Y80102*
X104908Y79931*
X105918*
Y80940*
G37*
G36*
X48895Y80813D02*
Y79804D01*
X49904*
X49881Y79975*
X49766Y80253*
X49583Y80492*
X49344Y80675*
X49066Y80790*
X48895Y80813*
G37*
G36*
X48641D02*
X48469Y80790D01*
X48191Y80675*
X47952Y80492*
X47769Y80253*
X47654Y79975*
X47631Y79804*
X48641*
Y80813*
G37*
G36*
X107181Y79677D02*
X106172D01*
Y78667*
X106343Y78690*
X106621Y78805*
X106860Y78988*
X107043Y79227*
X107158Y79505*
X107181Y79677*
G37*
G36*
X105918D02*
X104908D01*
X104931Y79505*
X105046Y79227*
X105229Y78988*
X105468Y78805*
X105746Y78690*
X105918Y78667*
Y79677*
G37*
G36*
X49904Y79550D02*
X48895D01*
Y78540*
X49066Y78563*
X49344Y78678*
X49583Y78861*
X49766Y79100*
X49881Y79378*
X49904Y79550*
G37*
G36*
X48641D02*
X47631D01*
X47654Y79378*
X47769Y79100*
X47952Y78861*
X48191Y78678*
X48469Y78563*
X48641Y78540*
Y79550*
G37*
G36*
X87503Y78747D02*
X86995D01*
Y77978*
X88382*
X88369Y78083*
X88279Y78299*
X88136Y78484*
X87951Y78627*
X87735Y78717*
X87503Y78747*
G37*
G36*
X86741D02*
X86233D01*
X86000Y78717*
X85784Y78627*
X85599Y78484*
X85456Y78299*
X85366Y78083*
X85353Y77978*
X86741*
Y78747*
G37*
G36*
X88382Y77724D02*
X86995D01*
Y76954*
X87503*
X87735Y76984*
X87951Y77074*
X88136Y77217*
X88279Y77402*
X88369Y77618*
X88382Y77724*
G37*
G36*
X86741D02*
X85353D01*
X85366Y77618*
X85456Y77402*
X85599Y77217*
X85784Y77074*
X86000Y76984*
X86233Y76954*
X86741*
Y77724*
G37*
G36*
X72263Y78875D02*
X70993D01*
X70727Y78840*
X70480Y78738*
X70268Y78575*
X70105Y78363*
X70003Y78116*
X69968Y77851*
X70003Y77585*
X70105Y77338*
X70268Y77126*
X70480Y76963*
X70727Y76861*
X70993Y76826*
X72263*
X72528Y76861*
X72775Y76963*
X72987Y77126*
X73150Y77338*
X73252Y77585*
X73287Y77851*
X73252Y78116*
X73150Y78363*
X72987Y78575*
X72775Y78738*
X72528Y78840*
X72263Y78875*
G37*
G36*
X108005Y77854D02*
X107733Y77818D01*
X107480Y77713*
X107262Y77546*
X107095Y77329*
X106990Y77075*
X106955Y76804*
X106990Y76532*
X107095Y76278*
X107262Y76061*
X107480Y75894*
X107733Y75789*
X108005Y75753*
X108276Y75789*
X108529Y75894*
X108747Y76061*
X108914Y76278*
X109019Y76532*
X109054Y76804*
X109019Y77075*
X108914Y77329*
X108747Y77546*
X108529Y77713*
X108276Y77818*
X108005Y77854*
G37*
G36*
X50728Y77727D02*
X50456Y77691D01*
X50203Y77586*
X49985Y77419*
X49818Y77202*
X49713Y76948*
X49678Y76677*
X49713Y76405*
X49818Y76151*
X49985Y75934*
X50203Y75767*
X50456Y75662*
X50728Y75626*
X50999Y75662*
X51252Y75767*
X51470Y75934*
X51637Y76151*
X51742Y76405*
X51777Y76677*
X51742Y76948*
X51637Y77202*
X51470Y77419*
X51252Y77586*
X50999Y77691*
X50728Y77727*
G37*
G36*
X94493Y74854D02*
X94221Y74818D01*
X93968Y74713*
X93750Y74546*
X93583Y74329*
X93478Y74075*
X93443Y73804*
X93478Y73532*
X93583Y73279*
X93750Y73061*
X93968Y72894*
X94221Y72789*
X94493Y72753*
X94764Y72789*
X95017Y72894*
X95235Y73061*
X95402Y73279*
X95507Y73532*
X95542Y73804*
X95507Y74075*
X95402Y74329*
X95235Y74546*
X95017Y74713*
X94764Y74818*
X94493Y74854*
G37*
G36*
X50728Y73265D02*
X50456Y73229D01*
X50203Y73124*
X49985Y72957*
X49818Y72740*
X49713Y72486*
X49678Y72214*
X49713Y71943*
X49818Y71689*
X49985Y71472*
X50203Y71305*
X50456Y71200*
X50728Y71164*
X50999Y71200*
X51252Y71305*
X51470Y71472*
X51637Y71689*
X51742Y71943*
X51777Y72214*
X51742Y72486*
X51637Y72740*
X51470Y72957*
X51252Y73124*
X50999Y73229*
X50728Y73265*
G37*
G36*
X61716Y71854D02*
X61445Y71818D01*
X61192Y71713*
X60974Y71546*
X60807Y71329*
X60702Y71075*
X60667Y70804*
X60702Y70532*
X60807Y70279*
X60936Y70110*
X60874Y69983*
X49779*
X49673Y70120*
X49408Y70324*
X49099Y70452*
X48768Y70495*
X48436Y70452*
X48127Y70324*
X47862Y70120*
X47658Y69855*
X47530Y69546*
X47487Y69215*
X47530Y68883*
X47658Y68574*
X47862Y68309*
X48127Y68105*
X48436Y67977*
X48768Y67934*
X49099Y67977*
X49408Y68105*
X49673Y68309*
X49779Y68446*
X62876*
X66715Y64607*
X66874Y64485*
X67060Y64408*
X67259Y64382*
X70325*
X70480Y64263*
X70727Y64161*
X70993Y64126*
X72263*
X72528Y64161*
X72775Y64263*
X72987Y64426*
X73150Y64638*
X73252Y64885*
X73287Y65151*
X73252Y65416*
X73150Y65663*
X72987Y65875*
X72775Y66038*
X72528Y66140*
X72263Y66175*
X70993*
X70727Y66140*
X70480Y66038*
X70325Y65919*
X67577*
X63738Y69758*
X63579Y69880*
X63394Y69957*
X63195Y69983*
X62558*
X62497Y70110*
X62626Y70279*
X62731Y70532*
X62766Y70804*
X62731Y71075*
X62626Y71329*
X62459Y71546*
X62241Y71713*
X61988Y71818*
X61716Y71854*
G37*
G36*
X61650Y68137D02*
X61378Y68101D01*
X61125Y67996*
X60907Y67829*
X60740Y67612*
X60635Y67358*
X60600Y67086*
X60635Y66815*
X60691Y66681*
X60606Y66554*
X50001*
X49877Y66855*
X49673Y67120*
X49408Y67324*
X49099Y67452*
X48768Y67495*
X48436Y67452*
X48127Y67324*
X47862Y67120*
X47658Y66855*
X47530Y66546*
X47487Y66215*
X47530Y65883*
X47658Y65574*
X47862Y65309*
X48127Y65105*
X48436Y64977*
X48768Y64934*
X49099Y64977*
X49195Y65017*
X49197Y65017*
X58643*
X58705Y64890*
X58580Y64727*
X58452Y64418*
X58409Y64086*
X58452Y63755*
X58580Y63446*
X58784Y63181*
X59049Y62977*
X59358Y62849*
X59690Y62806*
X59861Y62828*
X60374Y62315*
X60302Y62207*
X60021Y62324*
X59690Y62367*
X59358Y62324*
X59049Y62196*
X58784Y61992*
X58580Y61727*
X58452Y61418*
X58409Y61087*
X58452Y60755*
X58580Y60446*
X58784Y60181*
X59049Y59977*
X59358Y59849*
X59690Y59806*
X59861Y59828*
X65242Y54447*
X65401Y54325*
X65587Y54248*
X65786Y54222*
X70325*
X70480Y54103*
X70727Y54001*
X70993Y53966*
X72263*
X72528Y54001*
X72775Y54103*
X72987Y54266*
X73150Y54478*
X73252Y54725*
X73287Y54991*
X73252Y55256*
X73150Y55503*
X72987Y55715*
X72775Y55878*
X72528Y55980*
X72263Y56015*
X70993*
X70727Y55980*
X70480Y55878*
X70325Y55759*
X66104*
X60948Y60915*
X60970Y61087*
X60927Y61418*
X60810Y61699*
X60918Y61771*
X65702Y56987*
X65861Y56865*
X66047Y56788*
X66245Y56762*
X70325*
X70480Y56643*
X70727Y56541*
X70993Y56506*
X72263*
X72528Y56541*
X72775Y56643*
X72987Y56806*
X73150Y57018*
X73252Y57265*
X73287Y57531*
X73252Y57796*
X73150Y58043*
X72987Y58255*
X72775Y58418*
X72528Y58520*
X72263Y58555*
X70993*
X70727Y58520*
X70480Y58418*
X70325Y58299*
X66564*
X60948Y63915*
X60970Y64086*
X60927Y64418*
X60846Y64612*
X60954Y64684*
X63571Y62067*
X63730Y61945*
X63916Y61868*
X64114Y61842*
X70325*
X70480Y61723*
X70727Y61621*
X70993Y61586*
X72263*
X72528Y61621*
X72775Y61723*
X72987Y61886*
X73150Y62098*
X73252Y62345*
X73287Y62611*
X73252Y62876*
X73150Y63123*
X72987Y63335*
X72775Y63498*
X72528Y63600*
X72263Y63635*
X70993*
X70727Y63600*
X70480Y63498*
X70325Y63379*
X64433*
X61862Y65950*
X61903Y66070*
X61921Y66072*
X62174Y66177*
X62392Y66344*
X62559Y66561*
X62664Y66815*
X62699Y67086*
X62664Y67358*
X62559Y67612*
X62392Y67829*
X62174Y67996*
X61921Y68101*
X61650Y68137*
G37*
G36*
X50728Y64265D02*
X50456Y64229D01*
X50203Y64124*
X49985Y63957*
X49818Y63740*
X49713Y63486*
X49678Y63215*
X49713Y62943*
X49818Y62689*
X49985Y62472*
X50203Y62305*
X50456Y62200*
X50728Y62164*
X50999Y62200*
X51252Y62305*
X51470Y62472*
X51637Y62689*
X51742Y62943*
X51777Y63215*
X51742Y63486*
X51637Y63740*
X51470Y63957*
X51252Y64124*
X50999Y64229*
X50728Y64265*
G37*
G36*
X91287Y61351D02*
X90956Y61308D01*
X90647Y61180*
X90381Y60976*
X90276Y60839*
X88170*
X88015Y60958*
X87768Y61060*
X87503Y61095*
X86233*
X85967Y61060*
X85720Y60958*
X85508Y60795*
X85345Y60583*
X85243Y60336*
X85208Y60071*
X85243Y59805*
X85345Y59558*
X85508Y59346*
X85720Y59183*
X85967Y59081*
X86233Y59046*
X87503*
X87768Y59081*
X88015Y59183*
X88170Y59302*
X90276*
X90381Y59165*
X90647Y58961*
X90869Y58869*
Y58732*
X90647Y58640*
X90381Y58436*
X90276Y58299*
X88170*
X88015Y58418*
X87768Y58520*
X87503Y58555*
X86233*
X85967Y58520*
X85720Y58418*
X85508Y58255*
X85345Y58043*
X85243Y57796*
X85208Y57531*
X85243Y57265*
X85345Y57018*
X85508Y56806*
X85720Y56643*
X85967Y56541*
X86233Y56506*
X87503*
X87768Y56541*
X88015Y56643*
X88170Y56762*
X90276*
X90381Y56625*
X90647Y56421*
X90869Y56329*
Y56192*
X90647Y56100*
X90381Y55896*
X90276Y55759*
X88170*
X88015Y55878*
X87768Y55980*
X87503Y56015*
X86233*
X85967Y55980*
X85720Y55878*
X85508Y55715*
X85345Y55503*
X85243Y55256*
X85208Y54991*
X85243Y54725*
X85345Y54478*
X85508Y54266*
X85720Y54103*
X85967Y54001*
X86233Y53966*
X87503*
X87768Y54001*
X88015Y54103*
X88170Y54222*
X90276*
X90381Y54085*
X90647Y53881*
X90956Y53753*
X91287Y53710*
X91619Y53753*
X91928Y53881*
X92193Y54085*
X92397Y54350*
X92524Y54659*
X92568Y54991*
X92524Y55322*
X92397Y55631*
X92193Y55896*
X91928Y56100*
X91706Y56192*
Y56329*
X91928Y56421*
X92193Y56625*
X92397Y56890*
X92524Y57199*
X92568Y57531*
X92524Y57862*
X92397Y58171*
X92193Y58436*
X91928Y58640*
X91706Y58732*
Y58869*
X91928Y58961*
X92193Y59165*
X92397Y59430*
X92524Y59739*
X92568Y60071*
X92524Y60402*
X92397Y60711*
X92193Y60976*
X91928Y61180*
X91619Y61308*
X91287Y61351*
G37*
G36*
X68072D02*
X67740Y61308D01*
X67431Y61180*
X67166Y60976*
X66962Y60711*
X66834Y60402*
X66791Y60071*
X66834Y59739*
X66962Y59430*
X67166Y59165*
X67431Y58961*
X67740Y58833*
X68072Y58790*
X68403Y58833*
X68712Y58961*
X68977Y59165*
X69083Y59302*
X70325*
X70480Y59183*
X70727Y59081*
X70993Y59046*
X72263*
X72528Y59081*
X72775Y59183*
X72987Y59346*
X73150Y59558*
X73252Y59805*
X73287Y60071*
X73252Y60336*
X73150Y60583*
X72987Y60795*
X72775Y60958*
X72528Y61060*
X72263Y61095*
X70993*
X70727Y61060*
X70480Y60958*
X70325Y60839*
X69083*
X68977Y60976*
X68712Y61180*
X68403Y61308*
X68072Y61351*
G37*
G36*
X51562Y59288D02*
Y58420D01*
X52430*
X52413Y58555*
X52312Y58799*
X52151Y59009*
X51941Y59170*
X51697Y59271*
X51562Y59288*
G37*
G36*
X51308D02*
X51172Y59271D01*
X50928Y59170*
X50718Y59009*
X50557Y58799*
X50456Y58555*
X50439Y58420*
X51308*
Y59288*
G37*
G36*
X59817Y59223D02*
Y58214D01*
X60826*
X60803Y58385*
X60688Y58663*
X60505Y58902*
X60266Y59085*
X59988Y59200*
X59817Y59223*
G37*
G36*
X59563D02*
X59391Y59200D01*
X59113Y59085*
X58874Y58902*
X58691Y58663*
X58576Y58385*
X58553Y58214*
X59563*
Y59223*
G37*
G36*
X52430Y58166D02*
X51562D01*
Y57297*
X51697Y57314*
X51941Y57415*
X52151Y57576*
X52312Y57786*
X52413Y58030*
X52430Y58166*
G37*
G36*
X51308D02*
X50439D01*
X50456Y58030*
X50557Y57786*
X50718Y57576*
X50928Y57415*
X51172Y57314*
X51308Y57297*
Y58166*
G37*
G36*
X60826Y57960D02*
X59817D01*
Y56950*
X59988Y56973*
X60266Y57088*
X60505Y57271*
X60688Y57510*
X60803Y57788*
X60826Y57960*
G37*
G36*
X59563D02*
X58553D01*
X58576Y57788*
X58691Y57510*
X58874Y57271*
X59113Y57088*
X59391Y56973*
X59563Y56950*
Y57960*
G37*
G36*
X51562Y56748D02*
Y55880D01*
X52430*
X52413Y56015*
X52312Y56259*
X52151Y56469*
X51941Y56630*
X51697Y56731*
X51562Y56748*
G37*
G36*
X51308D02*
X51172Y56731D01*
X50928Y56630*
X50718Y56469*
X50557Y56259*
X50456Y56015*
X50439Y55880*
X51308*
Y56748*
G37*
G36*
X52430Y55626D02*
X51562D01*
Y54757*
X51697Y54774*
X51941Y54875*
X52151Y55036*
X52312Y55246*
X52413Y55490*
X52430Y55626*
G37*
G36*
X51308D02*
X50439D01*
X50456Y55490*
X50557Y55246*
X50718Y55036*
X50928Y54875*
X51172Y54774*
X51308Y54757*
Y55626*
G37*
G36*
X113797Y56264D02*
X113525Y56228D01*
X113272Y56123*
X113054Y55956*
X112887Y55739*
X112782Y55485*
X112747Y55214*
X112782Y54942*
X112887Y54688*
X113054Y54471*
X113272Y54304*
X113525Y54199*
X113797Y54163*
X114068Y54199*
X114321Y54304*
X114539Y54471*
X114706Y54688*
X114811Y54942*
X114846Y55214*
X114811Y55485*
X114706Y55739*
X114539Y55956*
X114321Y56123*
X114068Y56228*
X113797Y56264*
G37*
G36*
X104084D02*
X103813Y56228D01*
X103560Y56123*
X103342Y55956*
X103175Y55739*
X103070Y55485*
X103035Y55214*
X103070Y54942*
X103175Y54688*
X103342Y54471*
X103560Y54304*
X103813Y54199*
X104084Y54163*
X104356Y54199*
X104609Y54304*
X104827Y54471*
X104994Y54688*
X105099Y54942*
X105134Y55214*
X105099Y55485*
X104994Y55739*
X104827Y55956*
X104609Y56123*
X104356Y56228*
X104084Y56264*
G37*
G36*
X94493D02*
X94221Y56228D01*
X93968Y56123*
X93750Y55956*
X93583Y55739*
X93478Y55485*
X93443Y55214*
X93478Y54942*
X93583Y54688*
X93750Y54471*
X93968Y54304*
X94221Y54199*
X94493Y54163*
X94764Y54199*
X95017Y54304*
X95235Y54471*
X95402Y54688*
X95507Y54942*
X95542Y55214*
X95507Y55485*
X95402Y55739*
X95235Y55956*
X95017Y56123*
X94764Y56228*
X94493Y56264*
G37*
G36*
X61650Y56137D02*
X61378Y56101D01*
X61125Y55996*
X60907Y55829*
X60740Y55612*
X60635Y55358*
X60600Y55087*
X60635Y54815*
X60740Y54561*
X60907Y54344*
X61125Y54177*
X61378Y54072*
X61650Y54036*
X61921Y54072*
X62174Y54177*
X62392Y54344*
X62559Y54561*
X62664Y54815*
X62699Y55087*
X62664Y55358*
X62559Y55612*
X62392Y55829*
X62174Y55996*
X61921Y56101*
X61650Y56137*
G37*
G36*
X51562Y54208D02*
Y53340D01*
X52430*
X52413Y53475*
X52312Y53719*
X52151Y53929*
X51941Y54090*
X51697Y54191*
X51562Y54208*
G37*
%LNteensyconnectionboard-3*%
%LPD*%
G54D10*
X105410Y92075D02*
X107699D01*
X96647Y114554D02*
X98806Y112395D01*
X88011Y114554D02*
X96647D01*
X87600Y114143D02*
X88011Y114554D01*
X99822Y108458D02*
Y110363D01*
X98806Y111379D02*
X99822Y110363D01*
X98806Y111379D02*
Y112395D01*
X99822Y108458D02*
X100711Y107569D01*
X100826Y99564D02*
X102870Y97521D01*
X100826Y99564D02*
Y99744D01*
X102870Y96901D02*
Y97521D01*
X89778Y98298D02*
X92837D01*
X93218Y98679*
X94234*
X115168Y80723D02*
X115443D01*
X114866Y81026D02*
X115168Y80723D01*
X110363Y81146D02*
X114866Y81026D01*
X106172Y92837D02*
Y99441D01*
X105410Y92075D02*
X106172Y92837D01*
X104648Y92075D02*
X105410D01*
X115443Y83723D02*
Y84331D01*
X107699Y92075D02*
X115443Y84331D01*
X115756Y58214D02*
X119380Y61837D01*
Y72485*
X119968Y73073*
Y78533*
X115637Y82864D02*
X119968Y78533D01*
X115637Y82864D02*
Y83529D01*
X115443Y83723D02*
X115637Y83529D01*
X118237Y63627D02*
Y72958D01*
X118825Y73546*
Y77341*
X115443Y80723D02*
X118825Y77341D01*
X93469Y70804D02*
X108523D01*
X115443Y77724*
X104648Y92075D02*
X105410D01*
X106172Y99441D02*
X106220Y99392D01*
X113665*
X98967Y87884D02*
X104047Y82804D01*
X106045*
X92964Y79121D02*
X95582Y76502D01*
X90297Y79121D02*
X92964D01*
X93472Y81026D02*
X94996Y79502D01*
X90728Y81026D02*
X93472D01*
X88823Y82931D02*
X90728Y81026D01*
X89027Y80391D02*
X90297Y79121D01*
X86868Y80391D02*
X89027D01*
X95582Y76502D02*
X96012D01*
X94996Y79502D02*
X96012D01*
X91966Y87884D02*
X98967D01*
X113989Y99289D02*
D01*
X115824Y61214D02*
X118237Y63627D01*
X44216Y58293D02*
X51201Y51308D01*
X43815Y58293D02*
X44216D01*
X72574Y49022D02*
X83439Y59886D01*
X48006Y49022D02*
X72574D01*
X43815Y53213D02*
X48006Y49022D01*
X49149Y50165D02*
X72101D01*
X81915Y59978*
X72125Y77851D02*
X72360Y78085D01*
X71628Y77851D02*
X72125D01*
X81915Y84489D02*
X84293Y86868D01*
X81915Y59978D02*
Y84489D01*
X78613Y82804D02*
X80010Y84201D01*
X78613Y58293D02*
Y82804D01*
X71628Y51308D02*
X78613Y58293D01*
X51201Y51308D02*
X71628D01*
X83439Y59886D02*
Y82112D01*
X86135Y84809*
Y85236*
X86370Y85471*
X86868*
X84293Y86868D02*
X85532D01*
X86135Y87471*
Y87776*
X86370Y88011*
X86868*
X85293Y90500D02*
X86817D01*
X80010Y84201D02*
Y85217D01*
X85293Y90500*
X86817D02*
X86868Y90551D01*
X84328Y93199D02*
X85706Y91821D01*
X84328Y93199D02*
Y96469D01*
X85706Y91821D02*
X88029D01*
X91966Y87884*
X95457Y66167D02*
X103120D01*
X95082Y65792D02*
X95457Y66167D01*
X93904Y65792D02*
X95082D01*
X93528Y66167D02*
X93904Y65792D01*
X92684Y66167D02*
X93528D01*
X104466Y65792D02*
X106045Y64213D01*
X103496Y65792D02*
X104466D01*
X103120Y66167D02*
X103496Y65792D01*
X91668Y65151D02*
X92684Y66167D01*
X51723Y97282D02*
X60722D01*
X51316Y96876D02*
X51723Y97282D01*
X50346Y96876D02*
X51316D01*
X48768Y95298D02*
X50346Y96876D01*
X62712Y97282D02*
X64312D01*
X62305Y96876D02*
X62712Y97282D01*
X61128Y96876D02*
X62305D01*
X60722Y97282D02*
X61128Y96876D01*
X64312Y97282D02*
X65201Y98171D01*
X87365Y100711D02*
X89778Y98298D01*
X106172Y99441D02*
Y100330D01*
X100711Y105791D02*
X106172Y100330D01*
X114376Y68961D02*
X115756Y67580D01*
X92252Y68961D02*
X114376D01*
X90982Y67691D02*
X92252Y68961D01*
X60939Y65786D02*
X64114Y62611D01*
X71628*
X49197Y65786D02*
X60939D01*
X48768Y66215D02*
X49197Y65786D01*
X86135Y108096D02*
X86370Y108331D01*
X86868*
X46172Y53141D02*
Y53395D01*
X43815Y55753D02*
X46172Y53395D01*
Y53141D02*
X49149Y50165D01*
X95377Y103505D02*
X97065D01*
X100826Y99744*
X93091Y105791D02*
X95377Y103505D01*
X88900Y101219D02*
X89642Y100476D01*
X88900Y101219D02*
Y101289D01*
X88081Y102108D02*
X88900Y101289D01*
X88011Y102108D02*
X88081D01*
X87600Y102518D02*
X88011Y102108D01*
X89642Y100476D02*
X94849D01*
X87600Y105185D02*
X90943Y101842D01*
X96023*
X99250Y98615*
X87600Y113645D02*
Y114143D01*
X87365Y113411D02*
X87600Y113645D01*
X86868Y113411D02*
X87365D01*
X89154Y74676D02*
X91287D01*
X88519Y75311D02*
X89154Y74676D01*
X88148Y110479D02*
X92837Y105791D01*
X87757Y110479D02*
X88148D01*
X99930Y103396D02*
Y103650D01*
X98171Y105410D02*
X99930Y103650D01*
X98171Y105410D02*
Y105791D01*
X100711D02*
Y107569D01*
X92826Y70160D02*
X93469Y70804D01*
X86938Y70160D02*
X92826D01*
X86868Y70231D02*
X86938Y70160D01*
X58166Y101854D02*
X68199D01*
X50458Y109561D02*
X58166Y101854D01*
X50458Y109561D02*
Y110537D01*
X48768Y112228D02*
X50458Y110537D01*
X48768Y112228D02*
Y112600D01*
X68199Y101854D02*
X69596Y103251D01*
X71628*
X70739Y109220D02*
X71628Y108331D01*
X68707Y109220D02*
X70739D01*
X68326Y109601D02*
X68707Y109220D01*
X59757Y109601D02*
X68326D01*
X57404Y100330D02*
X71247D01*
X48768Y108966D02*
X57404Y100330D01*
X48768Y108966D02*
Y109601D01*
X71247Y100330D02*
X71628Y100711D01*
X69420Y67691D02*
X71628D01*
X63307Y73804D02*
X69420Y67691D01*
X59757Y73804D02*
X63307D01*
X69215Y70231D02*
X71628D01*
X62641Y76804D02*
X69215Y70231D01*
X59757Y76804D02*
X62641D01*
X68724Y72771D02*
X71628D01*
X61691Y79804D02*
X68724Y72771D01*
X59757Y79804D02*
X61691D01*
X68326Y75311D02*
X71628D01*
X60833Y82804D02*
X68326Y75311D01*
X59757Y82804D02*
X60833D01*
X67665Y82931D02*
X71628D01*
X67691Y80391D02*
X71628D01*
X52959Y83820D02*
X56515Y87376D01*
X49911Y83820D02*
X52959D01*
X48768Y82677D02*
X49911Y83820D01*
X56515Y87376D02*
X65887D01*
X67792Y85471*
X99930Y103396D02*
X100076Y103251D01*
X86868Y108331D02*
X87630D01*
X90043Y105918*
X92837Y105791D02*
X93091D01*
X87365Y110871D02*
X87757Y110479D01*
X86868Y110871D02*
X87365D01*
X89281Y72263D02*
X91160D01*
X91287Y72136*
X88773Y72771D02*
X89281Y72263D01*
X86868Y72771D02*
X88773D01*
X86868Y75311D02*
X88519D01*
X86868Y60071D02*
X91287D01*
X68072D02*
X71628D01*
X67792Y105791D02*
X71628D01*
X70855Y88011D02*
X71628D01*
X70728Y87884D02*
X70855Y88011D01*
X67818Y87884D02*
X70728D01*
X85795Y97936D02*
X86135D01*
X84328Y96469D02*
X85795Y97936D01*
X94849Y100476D02*
X96710Y98615D01*
X87600Y105185D02*
Y105556D01*
X87365Y105791D02*
X87600Y105556D01*
X86868Y105791D02*
X87365D01*
X87600Y102518D02*
Y103016D01*
X87365Y103251D02*
X87600Y103016D01*
X86868Y103251D02*
X87365D01*
X86868Y100711D02*
X87365D01*
X86135Y97936D02*
X86370Y98171D01*
X86868*
X95092Y95631D02*
X98648Y92075D01*
X86868Y95631D02*
X95092D01*
X94632Y93091D02*
X95648Y92075D01*
X86868Y93091D02*
X94632D01*
X86868Y54991D02*
X91287D01*
X86868Y57531D02*
X91287D01*
X67792Y93091D02*
X71628D01*
X67792Y90551D02*
X71628D01*
X65786Y54991D02*
X71628D01*
X59690Y61087D02*
X65786Y54991D01*
X66245Y57531D02*
X71628D01*
X59690Y64086D02*
X66245Y57531D01*
X61487Y110871D02*
X71628D01*
X59757Y112600D02*
X61487Y110871D01*
X67259Y65151D02*
X71628D01*
X63195Y69215D02*
X67259Y65151D01*
X48768Y69215D02*
X63195D01*
X86868Y82931D02*
X88823D01*
X94849Y62611D02*
X96452Y64213D01*
X86868Y62611D02*
X94849D01*
X86868Y65151D02*
X91668D01*
X115756Y64213D02*
Y67580D01*
X86868Y67691D02*
X90982D01*
X67792Y85471D02*
X71628D01*
X66042Y95631D02*
X71628D01*
X65709Y95298D02*
X66042Y95631D01*
X59757Y95298D02*
X65709D01*
X65201Y98171D02*
X71628D01*
X96452Y61214D02*
X106045D01*
X115756*
X115824*
X96452Y58214D02*
X106045D01*
X115756*
G54D11*
X41910Y47625D02*
X42545D01*
X41148Y48387D02*
X41910Y47625D01*
X40386Y49149D02*
X41148Y48387D01*
X42545Y47625D02*
X119253D01*
X122301Y50673*
X120777Y80645D02*
X122301Y79121D01*
Y50673D02*
Y79121D01*
X120777Y100965D02*
Y104013D01*
Y80645D02*
Y100965D01*
X104267Y120523D02*
X120777Y104013D01*
X44704Y120523D02*
X104267D01*
X40386Y116205D02*
X44704Y120523D01*
X40386Y49149D02*
Y116205D01*
G54D12*
X110363Y81146D03*
X102743Y96901D03*
X67691Y80391D03*
X67665Y82931D03*
X100076Y103251D03*
X90043Y105918D03*
X91287Y72136D03*
Y74676D03*
Y60071D03*
X68072D03*
X67792Y105791D03*
X67818Y87884D03*
X91287Y57531D03*
Y54991D03*
X90678Y112776D03*
X67818Y113411D03*
X104648Y92075D03*
X101648D03*
X98648D03*
X95648D03*
X67792Y90551D03*
Y93091D03*
X59757Y112600D03*
Y109601D03*
Y106601D03*
X48768Y112600D03*
Y109601D03*
Y106601D03*
X106172Y107061D03*
Y99441D03*
X59690Y64086D03*
Y61087D03*
Y58087D03*
X95806Y112395D03*
X98806D03*
X59757Y82804D03*
Y79804D03*
Y76804D03*
Y73804D03*
X48768Y66215D03*
Y69215D03*
X115443Y83723D03*
Y80723D03*
Y77724D03*
X48768Y92298D03*
Y95298D03*
X115756Y58214D03*
Y61214D03*
Y64213D03*
X59757Y92298D03*
Y95298D03*
X106045Y58214D03*
Y61214D03*
Y64213D03*
X48768Y79677D03*
Y82677D03*
X106045Y79804D03*
Y82804D03*
X96452Y58214D03*
Y61214D03*
Y64213D03*
Y76804D03*
Y79804D03*
Y82804D03*
G54D13*
X117128Y102265D03*
Y93266D03*
X101805Y110434D03*
X92806D03*
X50728Y72214D03*
Y63215D03*
Y98298D03*
Y89298D03*
X61716Y98298D03*
Y89298D03*
X50728Y85676D03*
Y76677D03*
X108005Y85803D03*
Y76804D03*
G54D14*
X115168Y96266D03*
Y99265D03*
G54D15*
X71628Y113411D03*
G54D16*
X71628Y110871D03*
Y108331D03*
Y105791D03*
Y103251D03*
Y100711D03*
Y98171D03*
Y95631D03*
Y93091D03*
Y90551D03*
Y88011D03*
Y85471D03*
Y82931D03*
Y80391D03*
Y77851D03*
Y75311D03*
Y72771D03*
Y70231D03*
Y67691D03*
Y65151D03*
Y62611D03*
Y60071D03*
Y57531D03*
Y54991D03*
X86868Y113411D03*
Y110871D03*
Y108331D03*
Y105791D03*
Y103251D03*
Y100711D03*
Y98171D03*
Y95631D03*
Y93091D03*
Y90551D03*
Y88011D03*
Y85471D03*
Y82931D03*
Y80391D03*
Y77851D03*
Y75311D03*
Y72771D03*
Y70231D03*
Y67691D03*
Y65151D03*
Y62611D03*
Y60071D03*
Y57531D03*
Y54991D03*
G54D17*
X92648Y90115D03*
X107647D03*
X61716Y103601D03*
Y115600D03*
X50728Y103601D03*
Y115600D03*
X61650Y55087D03*
Y67086D03*
X61716Y70804D03*
Y85803D03*
X117403Y74724D03*
Y86723D03*
X113797Y67213D03*
Y55214D03*
X104084Y67213D03*
Y55214D03*
X94493Y67213D03*
Y55214D03*
Y85803D03*
Y73804D03*
G54D18*
X93091Y105791D03*
X95631D03*
X98171D03*
X96774Y98679D03*
X94234D03*
X51435Y53213D03*
Y55753D03*
Y58293D03*
X43815Y53213D03*
Y55753D03*
G54D19*
X100711Y105791D03*
X99314Y98679D03*
X43815Y58293D03*
M02*