%FSLAX23Y23*%
%MOMM*%
%SFA1B1*%

%IPPOS*%
%ADD9500C,0.899922*%
%ADD9501C,1.016000*%
%ADD9502C,1.070102*%
%ADD9503C,1.320038*%
%LNteensyconnectionboard-1*%
%LPD*%
G54D9500*
X43815Y53213D03*
Y55753D03*
Y58293D03*
X51435D03*
Y55753D03*
Y53213D03*
X94234Y98679D03*
X96774D03*
X99314D03*
X98171Y105791D03*
X95631D03*
X93091D03*
X100711D03*
G54D9501*
X86868Y54991D03*
Y57531D03*
Y60071D03*
Y62611D03*
Y65151D03*
Y67691D03*
Y70231D03*
Y72771D03*
Y75311D03*
Y77851D03*
X91287Y74676D03*
Y72136D03*
X96452Y76804D03*
Y64213D03*
Y61214D03*
Y58214D03*
X91287Y57531D03*
Y60071D03*
Y54991D03*
X106045Y58214D03*
Y61214D03*
Y64213D03*
X115756D03*
Y61214D03*
Y58214D03*
X115443Y77724D03*
X71628Y77851D03*
Y75311D03*
Y72771D03*
Y70231D03*
Y67691D03*
Y65151D03*
Y62611D03*
Y60071D03*
Y57531D03*
Y54991D03*
X68072Y60071D03*
X59690Y61087D03*
Y58087D03*
Y64086D03*
X59757Y73804D03*
Y76804D03*
X48768Y69215D03*
Y66215D03*
Y79677D03*
Y82677D03*
Y92298D03*
Y95298D03*
X59757D03*
Y92298D03*
X67792Y93091D03*
Y90551D03*
X67818Y87884D03*
X71628Y88011D03*
Y90551D03*
Y93091D03*
Y95631D03*
Y98171D03*
Y100711D03*
Y103251D03*
Y105791D03*
Y108331D03*
Y110871D03*
Y113411D03*
X67818D03*
X67792Y105791D03*
X59757Y106601D03*
Y109601D03*
Y112600D03*
X48768D03*
Y109601D03*
Y106601D03*
X59757Y82804D03*
Y79804D03*
X67691Y80391D03*
X67665Y82931D03*
X71628D03*
Y85471D03*
Y80391D03*
X86868D03*
Y82931D03*
Y85471D03*
Y88011D03*
Y90551D03*
Y93091D03*
Y95631D03*
Y98171D03*
Y100711D03*
Y103251D03*
Y105791D03*
Y108331D03*
Y110871D03*
Y113411D03*
X90678Y112776D03*
X95806Y112395D03*
X98806D03*
X100076Y103251D03*
X102743Y96901D03*
X101648Y92075D03*
X98648D03*
X95648D03*
X104648D03*
X106172Y99441D03*
Y107061D03*
X90043Y105918D03*
X96452Y82804D03*
Y79804D03*
X106045D03*
Y82804D03*
X110363Y81146D03*
X115443Y80723D03*
Y83723D03*
G54D9502*
X115168Y96266D03*
Y99265D03*
G54D9503*
X94493Y55214D03*
X104084D03*
X113797D03*
Y67213D03*
X104084D03*
X94493D03*
Y73804D03*
X108005Y76804D03*
X117403Y74724D03*
X61716Y70804D03*
X61650Y67086D03*
Y55087D03*
X50728Y63215D03*
Y72214D03*
Y76677D03*
Y85676D03*
Y89298D03*
Y98298D03*
Y103601D03*
X61716D03*
Y98298D03*
Y89298D03*
Y85803D03*
Y115600D03*
X50728D03*
X92806Y110434D03*
X101805D03*
X117128Y102265D03*
Y93266D03*
X117403Y86723D03*
X108005Y85803D03*
X107647Y90115D03*
X92648D03*
X94493Y85803D03*
M02*